<?xml version="1.0" encoding="UTF-8"?><svg id="Layer_1" xmlns="http://www.w3.org/2000/svg" viewBox="0 0 125 100"><defs><style>.cls-1{fill:#fff;stroke-width:0px;}</style></defs><path class="cls-1" d="m3.77,46.77c2.04,0,4.07,0,6.11,0,.1,0,.21,0,.31,0,.14,0,.15,0,.15.14.03.48.05.96.08,1.44.03.58.07,1.17.11,1.75,0,.08,0,.16.04.25.08-.15.16-.31.24-.46.5-.96,1.13-1.81,2.01-2.46.94-.69,1.98-1.06,3.15-1.15,1-.07,1.92.14,2.78.61.86.47,1.48,1.18,1.94,2.04.22.41.39.85.53,1.3.02.06.02.13.09.19.03-.07.06-.13.09-.19.46-.97,1.06-1.84,1.87-2.55.98-.85,2.11-1.31,3.41-1.4.62-.04,1.22-.01,1.82.14,1.51.39,2.6,1.31,3.32,2.67.39.75.6,1.55.71,2.38.11.87.09,1.74.09,2.61,0,2.97,0,5.94,0,8.9,0,.07,0,.14,0,.21,0,.15,0,.15.15.15.5,0,1,0,1.51,0,.18,0,.36.01.55.03.3.02.48.18.57.46.05.14.06.29.07.44,0,.1-.04.13-.13.12-.04,0-.08,0-.12,0-2.94,0-5.87,0-8.81,0-.03,0-.07,0-.1,0-.09,0-.11-.04-.11-.12,0-.26,0-.52,0-.78,0-.14,0-.15.16-.15.39,0,.78-.04,1.17-.12.47-.09.74-.38.9-.8.15-.41.19-.84.21-1.27,0-.11,0-.22,0-.33,0-2.86,0-5.71,0-8.57,0-.97-.23-1.88-.7-2.73-.41-.75-1.03-1.24-1.89-1.37-.84-.13-1.6.08-2.29.56-.85.59-1.4,1.4-1.77,2.35-.19.49-.32.99-.41,1.5-.02.1-.02.19-.02.29,0,3.41,0,6.82,0,10.23,0,.29-.04.25.25.25.38,0,.76,0,1.14,0,.16,0,.33.02.49.04.22.03.37.15.46.35.08.17.1.36.12.55,0,.08-.03.12-.12.11-.03,0-.07,0-.1,0-2.77,0-5.55,0-8.32,0-.37,0-.32.05-.32-.32,0-.2,0-.39,0-.59,0-.14,0-.14.15-.14.4,0,.79-.04,1.19-.12.46-.09.75-.36.92-.79.16-.43.23-.87.23-1.32,0-2.97,0-5.95,0-8.92,0-.82-.14-1.62-.5-2.37-.17-.36-.38-.7-.67-.98-.56-.55-1.25-.76-2.02-.68-.76.07-1.4.43-1.96.93-.79.69-1.28,1.57-1.56,2.57-.21.73-.33,1.48-.33,2.25,0,2.54,0,5.08,0,7.61,0,.54-.02,1.08-.02,1.62,0,.2-.01.2.19.2.36,0,.72,0,1.08,0,.17,0,.34.01.51.04.33.04.53.23.62.54.03.11.04.23.05.35,0,.08-.02.12-.11.12-.06,0-.12,0-.18,0-2.96,0-5.92,0-8.89,0-.03,0-.05,0-.08,0,0-.35,0-.7,0-1.05.51.02,1.02-.02,1.52-.12.63-.13,1-.52,1.18-1.12.11-.39.15-.79.15-1.2,0-4.26,0-8.52,0-12.78,0-.07,0-.13,0-.2,0-.13,0-.14-.15-.14-.03,0-.07,0-.1,0-.74,0-1.47,0-2.21,0-.13,0-.26,0-.39-.03v-1.02Z"/><path class="cls-1" d="m121.23,64.42c-.25,0-.5,0-.74,0-2.94,0-5.87,0-8.81,0-.03,0-.07,0-.1,0-.1,0-.14-.04-.13-.14.01-.25.01-.51,0-.76,0-.14,0-.14.14-.14.33,0,.65-.02.98-.05.27-.03.54-.07.79-.19.53-.26.8-.71.93-1.26.08-.32.09-.66.09-.99,0-2.71,0-5.41,0-8.12,0-1.57,0-3.14,0-4.7,0-.3.02-.26-.26-.26-.82,0-1.63,0-2.45,0-.05,0-.09,0-.14,0-.08,0-.1-.04-.1-.11.01-.27.01-.55,0-.82,0-.08.03-.11.11-.1.04,0,.08,0,.12,0,2.13,0,4.27,0,6.4,0,.35,0,.29-.02.29.29,0,5.37,0,10.74,0,16.1,0,.01,0,.03,0,.04,0,.16,0,.16.16.16.53,0,1.07,0,1.6,0,.16,0,.33,0,.49.03.34.04.52.22.57.56,0,.04,0,.08.04.11v.35Z"/><path class="cls-1" d="m98.2,55.39c-.07,0-.1.05-.14.09-.56.52-1.12,1.04-1.67,1.56-.07.07-.1.14-.1.24,0,1.97,0,3.94,0,5.92,0,.17-.01.18.19.18.57,0,1.14,0,1.7,0,.18,0,.35.02.53.03.24.02.4.15.49.36.07.17.1.35.11.53,0,.08-.02.12-.11.12-.05,0-.09,0-.14,0-3.19,0-6.38,0-9.57,0-.35,0-.31.05-.31-.31,0-.2,0-.39,0-.59,0-.15,0-.15.16-.15.46,0,.91-.03,1.36-.12.37-.08.72-.18,1-.45.31-.3.48-.66.56-1.07.05-.26.06-.52.06-.78,0-7.27,0-14.54,0-21.81,0-.14,0-.29,0-.43,0-.07-.03-.11-.1-.11-.06,0-.12,0-.18,0-.87,0-1.74,0-2.6,0-.05,0-.1,0-.16,0-.09,0-.11-.04-.11-.12,0-.22,0-.44,0-.66,0-.26,0-.26.26-.26,2.21,0,4.42,0,6.64,0,.04,0,.08,0,.12,0,.08,0,.1.04.1.11,0,.08,0,.17,0,.25,0,5.79,0,11.57,0,17.36,0,.05-.02.1.02.15.15-.06,7.55-6.98,8.11-7.58-.06-.06-.13-.04-.2-.04-.79,0-1.58,0-2.37,0-.14,0-.32.07-.41-.04-.08-.09-.02-.26-.02-.4,0-.15,0-.3,0-.45,0-.15,0-.15.16-.15.04,0,.08,0,.12,0,2.17,0,4.35,0,6.52,0,.26,0,.26,0,.23.26-.07.5-.28.71-.78.77-.12.02-.25.02-.37.02-.5,0-.95.13-1.36.41-.48.33-.92.7-1.35,1.1-.89.83-1.78,1.67-2.66,2.5-.29.27-.58.54-.87.82-.14.13-.14.09-.03.27.38.61.77,1.23,1.15,1.84,1.75,2.8,3.51,5.59,5.26,8.39.01.02.03.04.04.07.06.14.16.17.31.17.43,0,.86-.03,1.29.02.34.04.53.2.61.53.03.12.03.24.05.37.01.08-.02.12-.1.12-.05,0-.09,0-.14,0-1.87,0-3.73,0-5.6,0-.13,0-.21-.02-.29-.14-.91-1.51-1.82-3.01-2.73-4.51-.82-1.36-1.65-2.71-2.48-4.07-.06-.1-.12-.22-.2-.3Z"/><path class="cls-1" d="m80.87,61.19c-.06.04-.07.1-.09.14-.87,1.8-2.31,2.88-4.24,3.32-.76.17-1.53.22-2.29.15-1.12-.1-2.16-.44-3.04-1.15-.67-.54-1.1-1.23-1.32-2.05-.23-.83-.27-1.68-.14-2.53.16-1.01.66-1.82,1.43-2.48.61-.52,1.32-.89,2.06-1.18.93-.37,1.89-.59,2.87-.75,1.06-.18,2.12-.27,3.19-.32.42-.02.85-.02,1.27-.04.2,0,.2,0,.2-.19,0-.97.02-1.94-.02-2.91-.03-.77-.18-1.52-.52-2.23-.43-.87-1.14-1.39-2.09-1.57-.57-.11-1.14-.11-1.71.03-.44.11-.78.35-1.04.71-.32.43-.53.93-.7,1.43-.07.2-.13.41-.2.61-.04.12-.09.24-.14.36-.43.96-1.24,1.3-2.21,1.1-.17-.03-.34-.09-.5-.17-.53-.26-.81-.69-.87-1.27-.08-.75.16-1.4.64-1.96.5-.58,1.13-.97,1.83-1.26.83-.34,1.69-.51,2.58-.6.66-.06,1.31-.11,1.97-.1,1.13.02,2.24.14,3.3.54,1.21.45,2.18,1.2,2.81,2.33.34.61.55,1.26.67,1.95.09.53.14,1.07.14,1.61,0,2.81,0,5.62,0,8.43,0,.45.01.9.13,1.34.05.18.11.35.2.51.27.5.79.62,1.26.31.21-.14.35-.33.46-.55.19-.36.3-.75.39-1.14.07-.32.12-.64.16-.96.02-.15.02-.16.16-.15.26.02.52.03.78.04.14,0,.15.02.14.15-.06.78-.17,1.55-.5,2.27-.45,1-1.24,1.58-2.31,1.79-.48.1-.97.13-1.46.07-.95-.12-1.76-.52-2.34-1.31-.45-.61-.71-1.3-.86-2.03-.02-.08-.03-.15-.05-.23,0-.01-.01-.02-.03-.04Zm-.1-3.97s0,0,0,0c0-.52,0-1.04,0-1.56,0-.3,0-.27-.27-.26-1.01.04-2.02.09-3.02.27-.57.1-1.12.23-1.65.47-1.29.59-1.95,1.59-2.01,3-.03.6.03,1.2.17,1.78.12.52.31,1.01.67,1.41.6.68,1.39.88,2.25.77,1.02-.13,1.86-.65,2.54-1.41.67-.75,1.03-1.65,1.29-2.6.03-.11.03-.23.03-.35,0-.51,0-1.01,0-1.52Z"/><path class="cls-1" d="m43.59,55.39c-1.35-.03-2.51-.05-3.67-.07-.27,0-.25-.03-.25.25,0,.84.09,1.67.22,2.51.12.76.29,1.51.57,2.23.22.56.49,1.11.85,1.6.72.95,1.67,1.52,2.85,1.69.97.14,1.91.03,2.83-.28,1.44-.48,2.5-1.41,3.25-2.72.09-.16.18-.33.27-.5.04-.08.07-.11.17-.08.26.09.52.18.78.26.1.03.09.08.06.16-.86,2-2.3,3.36-4.41,4-.52.16-1.05.25-1.59.32-.7.09-1.41.1-2.11.04-1.61-.13-3.11-.62-4.47-1.52-1.74-1.15-2.84-2.75-3.34-4.76-.27-1.09-.35-2.19-.33-3.31.03-1.09.2-2.16.56-3.2.4-1.15,1-2.19,1.81-3.1.83-.93,1.83-1.61,3-2.06.85-.33,1.73-.48,2.63-.55.69-.05,1.38-.04,2.07.03,1.52.16,2.93.63,4.21,1.46.81.53,1.46,1.2,1.87,2.08.45.95.58,1.95.38,2.99-.15.75-.56,1.32-1.25,1.68-.56.29-1.16.46-1.78.58-1.03.19-2.07.27-3.11.28-.76.01-1.51,0-2.08,0Zm.49-1.13c.61.01,1.21-.03,1.81-.16.27-.06.54-.14.79-.29.58-.34.87-.88.99-1.52.1-.54.08-1.08,0-1.61-.09-.62-.26-1.22-.56-1.78-.37-.69-.92-1.17-1.67-1.42-.64-.21-1.29-.23-1.95-.12-.83.14-1.51.56-2.08,1.16-.5.53-.84,1.15-1.1,1.83-.26.69-.41,1.41-.51,2.14-.07.5-.11,1.01-.12,1.52,0,.1.02.13.13.14.41.04.82.02,1.23.03,1.02.03,2.03.05,3.05.08Z"/><path class="cls-1" d="m60.13,50.71c.06-.13.11-.21.15-.3.65-1.41,1.68-2.48,3.03-3.24,1.08-.6,2.24-.82,3.46-.62.87.15,1.57.57,1.9,1.44.26.7.26,1.4-.09,2.08-.32.62-.84.95-1.53,1.03-.69.08-1.26-.14-1.69-.68-.18-.23-.36-.46-.51-.72-.12-.21-.24-.42-.39-.61-.13-.16-.27-.3-.44-.41-.21-.13-.42-.15-.66-.09-.28.08-.52.22-.74.39-.73.57-1.26,1.29-1.64,2.13-.32.7-.51,1.43-.63,2.19-.12.77-.16,1.55-.16,2.33,0,2.48,0,4.96,0,7.44,0,.3,0,.3.3.3.87,0,1.74,0,2.6,0,.18,0,.36.02.55.03.24.03.41.15.5.38.08.18.08.37.1.55,0,.06-.03.08-.08.08-.05,0-.1,0-.16,0-3.46,0-6.93,0-10.39,0-.04,0-.08,0-.12,0-.07,0-.09-.03-.09-.1,0-.28,0-.56,0-.84,0-.1.06-.11.14-.11.28,0,.56-.02.84-.04.21-.02.41-.06.61-.11.58-.15.92-.54,1.09-1.1.11-.35.14-.72.14-1.08,0-4.32,0-8.64,0-12.96,0-.31.01-.26-.26-.26-.77,0-1.54,0-2.31,0-.05,0-.1,0-.16,0-.06,0-.08-.03-.08-.09,0-.29,0-.59,0-.88,0-.06.04-.08.09-.08.04,0,.08,0,.12,0,2.02,0,4.05,0,6.07,0,.01,0,.03,0,.04,0,.19,0,.19,0,.2.2.05.93.09,1.86.14,2.79.02.3,0,.61.07.96Z"/><path class="cls-1" d="m119.45,41.99c-.74,1.12-2.53,2.1-4.45,1.68-2.01-.44-3.52-2.19-3.51-4.36.01-2.1,1.45-3.66,3-4.13-1.06,1.74-1.1,3.47.04,5.18,1.27,1.63,2.94,2.09,4.91,1.64Z"/></svg>