<?xml version="1.0" encoding="UTF-8"?><svg id="Layer_1" xmlns="http://www.w3.org/2000/svg" viewBox="0 0 125 100"><defs><style>.cls-1{fill:#fff;stroke-width:0px;}</style></defs><path class="cls-1" d="m117.6,44.58c0,3.96-.01,7.91,0,11.87,0,.72-.23,1.11-1.01,1.35-1.18.37-2.38.67-3.58,1.01-.42.12-.84.24-1.27.36-.48.13-.77-.04-.88-.53-.04-.16-.05-.33-.05-.5,0-7.91,0-15.82,0-23.73,0-.7.27-1.09.94-1.28,1.62-.47,3.25-.93,4.88-1.38.62-.17.94.09.94.74,0,4.03,0,8.07,0,12.1h0Z"/><path class="cls-1" d="m20.46,39.41c.89,0,1.79,0,2.68,0,.63,0,.73.06.93.66,1.14,3.3,2.27,6.59,3.4,9.89.92,2.7,1.83,5.41,2.74,8.12.24.72-.04,1.09-.84,1.1-1.18.01-2.35,0-3.53.01-.53,0-1.06,0-1.59,0-.6,0-.78-.13-.98-.68-.94-2.64-1.87-5.29-2.8-7.93-1.12-3.21-2.24-6.41-3.36-9.62-.08-.22-.14-.44-.2-.67-.13-.5.1-.83.63-.86.49-.03.98-.01,1.47-.01.48,0,.96,0,1.44,0h0Z"/><path class="cls-1" d="m66.55,39.11c2.8.05,5.05.84,6.97,2.52.06.05.12.1.17.16.38.4.37.65-.08.98-.66.48-1.33.94-1.98,1.42-2.96,2.18-5.91,4.37-8.88,6.56-1.36,1-2.73,1.99-4.1,2.99-.11.08-.23.17-.35.24-.35.21-.55.17-.78-.19-.19-.31-.32-.65-.43-.99-1.13-3.57-.65-6.89,1.72-9.83,2.03-2.52,4.75-3.78,7.74-3.86Z"/><path class="cls-1" d="m76.72,49.21c-.18,4.16-2.07,7.3-5.81,9.2-1.48.76-3.1,1.35-4.84,1.17-2.44-.25-4.64-1.07-6.48-2.74-.42-.38-.38-.64.14-1.03,1.69-1.25,3.39-2.5,5.08-3.75,3.26-2.41,6.53-4.81,9.79-7.22.76-.56.96-.52,1.33.35.55,1.27.81,2.6.79,4Z"/><path class="cls-1" d="m16.84,59.19c-.78,0-1.55,0-2.33,0-.83,0-.97-.09-1.25-.86-.85-2.39-1.71-4.77-2.55-7.16-.99-2.8-1.97-5.6-2.96-8.4-.06-.17-.14-.33-.3-.48-.43-.39-.3-1.07.25-1.25,1.49-.5,3.02-.89,4.53-1.32.29-.08.57-.17.86-.24.64-.17.84-.07,1.05.54.73,2.1,1.45,4.21,2.17,6.31,1.34,3.93,2.66,7.87,3.99,11.8.22.66-.06,1.03-.83,1.05-.88.02-1.76,0-2.64,0,0,0,0,0,0,.01Z"/><path class="cls-1" d="m108.89,42.67c0,.86-.02,1.73,0,2.59.02.6-.17,1.04-.63,1.45-1.26,1.12-1.51,2.76-.7,4.17.22.37.51.68.83.96.35.3.48.66.48,1.09,0,1.91,0,3.81,0,5.72,0,.03,0,.05,0,.08-.03.84-.43,1.09-1.18.69-.41-.22-.85-.37-1.28-.53-3.46-1.27-6.62-5.08-6.55-9.58.06-3.58,1.49-6.45,4.39-8.56,1.08-.79,2.32-1.29,3.61-1.63.07-.02.15-.03.23-.04.59-.07.76.06.77.65.01.98,0,1.96,0,2.94h.01Z"/><path class="cls-1" d="m43.77,49.19c0,2.92,0,5.85,0,8.77,0,.06,0,.13,0,.19,0,.94-.24,1.13-1.16.87-2.82-.79-5-2.42-6.43-4.98-2.71-4.86-.8-11.11,4.14-13.68.76-.39,1.53-.74,2.37-.92.17-.04.36-.05.54-.05.33,0,.5.17.53.49,0,.13,0,.26,0,.39,0,2.98,0,5.95,0,8.93Z"/><path class="cls-1" d="m89.5,49.17c0-3.07,0-6.14,0-9.2,0-.5.13-.63.62-.59,1.02.09,1.95.49,2.84.97,5.22,2.85,6.9,9.48,3.65,14.44-1.48,2.26-3.62,3.63-6.22,4.3-.7.18-.88.02-.88-.72,0-3.07,0-6.14,0-9.2h0Z"/><path class="cls-1" d="m87.15,49.19c0,2.99,0,5.98,0,8.97,0,.96-.22,1.13-1.14.87-3.91-1.09-6.43-3.63-7.34-7.52-.98-4.18.44-7.66,3.77-10.35,1.13-.91,2.45-1.48,3.87-1.77.66-.13.84.04.84.72,0,3.03,0,6.06,0,9.09,0,0,0,0,0,0Z"/><path class="cls-1" d="m46.1,49.22c0-3.07,0-6.13,0-9.2,0-.6.14-.74.75-.64,1.27.2,2.42.72,3.48,1.44,4.48,3.02,5.87,8.96,3.1,13.59-1.45,2.42-3.64,3.97-6.39,4.69-.78.2-.95.06-.95-.75,0-3.04,0-6.08,0-9.12,0,0,0,0,0,0Z"/><path class="cls-1" d="m31.2,39.4c1.07,0,2.15,0,3.22,0,.85,0,1.1.33.81,1.15-.48,1.36-1,2.7-1.5,4.06-.67,1.8-1.33,3.6-2,5.39-.05.13-.1.26-.16.39-.12.24-.3.38-.59.37-.29-.01-.5-.15-.61-.4-.12-.28-.22-.58-.32-.87-.99-2.99-2.06-5.96-2.99-8.97-.24-.76,0-1.1.8-1.11,1.11,0,2.22,0,3.34,0h0Z"/></svg>