<?xml version="1.0" encoding="UTF-8"?><svg id="Layer_1" xmlns="http://www.w3.org/2000/svg" viewBox="0 0 125 100"><defs><style>.cls-1{fill:#fff;stroke-width:0px;}</style></defs><path class="cls-1" d="m39.5,52.95c.71-2.15,1.38-4.16,2.04-6.17.32-.97.69-1.92.95-2.91.2-.78.77-.55,1.26-.57.47-.02.94-.12,1.16.58.86,2.76,1.8,5.5,2.72,8.24.08.23.16.46.3.84.83-2.56,1.61-4.97,2.39-7.38.06-.18.11-.37.17-.55.55-1.71.55-1.69,2.34-1.68.61,0,.68.17.49.71-.94,2.65-1.84,5.31-2.76,7.96-.48,1.38-.96,2.76-1.41,4.15-.13.4-.33.55-.77.56-1.51.03-1.51.05-2-1.39-.8-2.37-1.6-4.75-2.41-7.12-.07-.2-.17-.39-.33-.77-.56,1.61-1.07,3.07-1.57,4.52-.46,1.35-.94,2.71-1.37,4.07-.15.49-.37.71-.92.68-1.72-.07-1.29.27-1.86-1.34-1.32-3.74-2.57-7.51-3.88-11.25-.22-.63-.15-.8.55-.79,1.79.02,1.78,0,2.32,1.69.76,2.39,1.54,4.77,2.31,7.16.06.2.15.39.29.74Z"/><path class="cls-1" d="m73.02,47.58c-1.18,1.76-2.37,3.51-3.53,5.29-.35.54-.53.55-.88,0-1.16-1.8-2.36-3.57-3.71-5.31,0,.48,0,.96,0,1.44,0,2.29-.02,4.58.02,6.87.01.63-.18.79-.79.78-1.55-.03-1.55,0-1.55-1.57,0-3.64.01-7.29-.01-10.93,0-.6.16-.74.77-.81,1.31-.15,2.11.29,2.76,1.48.88,1.61,1.96,3.11,3.01,4.73,1.18-1.84,2.33-3.56,3.41-5.33.39-.64.83-.97,1.58-.85.3.04.61.03.91,0,.52-.05.65.19.65.68-.01,3.97-.01,7.95,0,11.92,0,.49-.14.67-.66.68-1.79.04-1.79.06-1.79-1.68,0-2.45,0-4.9,0-7.35-.06-.02-.12-.03-.18-.05Z"/><path class="cls-1" d="m15.39,52.05c0-1.26,0-2.52,0-3.77,0-1.41.01-2.82,0-4.22,0-.48.12-.7.65-.68,2.19.05,1.74-.28,1.76,1.71.03,3.45.01,6.9,0,10.35,0,.4.27.93-.27,1.18-.55.26-1.78-.04-2.11-.47-2.05-2.64-4.09-5.28-6.14-7.92-.18-.23-.37-.46-.7-.86,0,.46,0,.72,0,.98,0,2.51-.03,5.03.01,7.54.01.65-.21.78-.8.77-1.55-.02-1.55,0-1.55-1.58,0-3.64.02-7.29-.02-10.93,0-.63.19-.74.79-.79,1.05-.09,1.7.28,2.33,1.13,1.9,2.58,3.9,5.08,5.86,7.6.07-.01.13-.02.2-.04Z"/><path class="cls-1" d="m103.02,49.22c.75,0,1.49.03,2.23-.01.53-.03.65.18.64.67-.02,1.46,0,2.93,0,4.39,0,.28,0,.54-.26.75-3,2.49-8.21,2.69-10.71-.64-1.83-2.43-1.94-5.1-.54-7.78,1.23-2.36,3.9-3.7,6.66-3.44,1.46.14,2.8.55,3.98,1.46.34.26.41.46.09.78-.38.39-.65.99-1.11,1.2-.49.22-.85-.44-1.3-.66-1.83-.93-4.1-.66-5.37.68-1.51,1.58-1.77,4.19-.61,6.06,1.06,1.71,3.08,2.4,5.23,1.78.19-.05.37-.12.55-.19.93-.36,1.48-1.81,1.04-2.72-.13-.27-.37-.2-.57-.21-.74-.01-1.49-.02-2.24,0-.39.01-.51-.13-.54-.52-.1-1.6-.11-1.6,1.51-1.6.44,0,.88,0,1.32,0Z"/><path class="cls-1" d="m21.64,49.99c0-1.99.01-3.97-.01-5.96,0-.5.14-.66.65-.66,2.84.02,5.69.02,8.53,0,.49,0,.67.12.68.65.02,1.52.05,1.53-1.46,1.53-1.77,0-3.53.01-5.3-.01-.53,0-.76.14-.72.7.06.85-.33,1.92.16,2.49.47.54,1.56.15,2.37.17,1.16.03,2.32.03,3.48,0,.52-.02.66.17.64.67-.05,1.82.2,1.47-1.48,1.49-1.52.02-3.04.02-4.55,0-.47,0-.63.15-.62.62.03.72.04,1.44,0,2.15-.03.57.23.69.74.68,1.99-.02,3.97.02,5.96-.02.67-.01.99.15.87.86-.03.16-.02.33,0,.5.1.65-.16.85-.82.84-2.79-.04-5.57-.04-8.36,0-.63,0-.79-.18-.78-.79.04-1.96.01-3.92.01-5.88Z"/><path class="cls-1" d="m85.13,53.42c-.3,0-.61,0-.91,0-2.09,0-2.08,0-2.92,1.96-.18.42-.21,1.07-.64,1.19-.62.17-1.32.11-1.97.05-.51-.05-.19-.42-.1-.62.75-1.75,1.51-3.49,2.27-5.23.99-2.27,2.01-4.54,2.96-6.83.26-.62.64-.75,1.21-.67.6.08,1.25-.24,1.63.67,1.68,3.99,3.43,7.95,5.19,11.9.29.66.21.83-.53.81-1.68-.04-1.68,0-2.34-1.57q-.71-1.67-2.52-1.67c-.44,0-.88,0-1.32,0Zm.07-7.22c-.7,1.64-1.31,3.12-1.96,4.58-.17.4-.12.56.33.55,1.08,0,2.15,0,3.23,0,.39,0,.59-.08.39-.52-.65-1.49-1.29-2.98-1.99-4.61Z"/><path class="cls-1" d="m113.81,43.19c1.51,0,2.87.47,4.12,1.31.38.25.43.46.16.86-.84,1.25-.82,1.26-2.2.57-.98-.49-2.02-.76-3.12-.51-.69.16-1.22.52-1.32,1.29-.1.78.3,1.25.98,1.54.66.29,1.35.47,2.05.64.72.18,1.44.38,2.12.69,1.48.68,2.26,1.78,2.17,3.46-.09,1.61-.86,2.76-2.33,3.31-2.78,1.05-5.31.35-7.62-1.37-.28-.21-.33-.42-.06-.66.02-.02.04-.04.05-.06.96-1.24.96-1.24,2.28-.45,1.22.73,2.52,1.11,3.95.74.76-.2,1.29-.66,1.33-1.49.04-.78-.47-1.23-1.14-1.45-1.18-.39-2.39-.67-3.56-1.08-1.82-.64-2.62-1.66-2.66-3.28-.06-2.07,1.39-3.7,3.54-3.99.41-.05.83-.05,1.24-.08Z"/></svg>