<?xml version="1.0" encoding="UTF-8"?><svg id="Layer_1" xmlns="http://www.w3.org/2000/svg" viewBox="0 0 125 100"><defs><style>.cls-1{fill:#fff;stroke-width:0px;}</style></defs><path class="cls-1" d="m9.86,45.25c2.64,0,5.27,0,7.91,0,.2,0,.27.05.25.25-.02.17.04.38-.03.52-.08.14-.31.06-.47.09-.6.1-.92.39-1.05,1-.08.39-.05.77.07,1.15.48,1.47,1.1,2.89,1.71,4.31.29.69.6,1.37.9,2.05.03.06.03.13.1.17.06-.04.07-.11.09-.16.81-2.06,1.61-4.12,2.42-6.18.16-.42.29-.85.23-1.31-.08-.62-.5-1.01-1.13-1.05-.19-.01-.38-.02-.57-.01-.13,0-.17-.05-.16-.17,0-.15.01-.29,0-.44-.02-.18.06-.22.22-.22,1.54,0,3.08,0,4.63,0,.18,0,.32-.05.46-.16.79-.61,1.41-1.37,1.93-2.21.55-.88.96-1.83,1.28-2.81.05-.14.11-.2.26-.19.25.01.5.01.75,0,.17,0,.23.03.22.21,0,1.18,0,2.36,0,3.54,0,.45.02.91,0,1.36,0,.2.05.26.26.26,3.23,0,6.46,0,9.69,0,.23,0,.47,0,.7,0,.11,0,.16.04.15.15,0,.01,0,.03,0,.04,0,.18.05.39-.02.54-.08.16-.32.08-.48.12-.79.19-1.19.84-1.05,1.74.11.7.38,1.35.61,2.01.56,1.6,1.18,3.19,1.8,4.77.02.05.05.1.1.2.06-.17.1-.3.14-.42.62-2.04,1.26-4.07,1.81-6.13.07-.27.12-.54.12-.82,0-.71-.36-1.16-1.05-1.31-.2-.04-.41-.06-.61-.08-.12,0-.15-.04-.15-.16,0-.15.01-.31,0-.46-.01-.16.05-.19.2-.19,1.08,0,2.16,0,3.24,0,1.26,0,2.53,0,3.79,0,.19,0,.24.05.23.23-.02.17.05.38-.03.52-.07.13-.31.07-.47.1-.9.2-1.33,1.03-1,1.99.47,1.36.95,2.71,1.42,4.06.28.81.57,1.61.86,2.42.03.08.06.16.12.3.13-.46.25-.86.36-1.27.49-1.74.99-3.48,1.48-5.22.1-.35.17-.7.16-1.06-.02-.59-.32-.98-.88-1.15-.22-.07-.44-.1-.67-.1-.13,0-.17-.05-.16-.17.02-.21-.09-.48.04-.62.12-.14.39-.04.59-.04,1.69,0,3.38,0,5.07,0,.18,0,.25.04.23.23-.02.18.05.4-.03.54-.07.14-.32.09-.48.15-.57.19-.99.55-1.34,1.03-.38.51-.62,1.1-.82,1.7-1.17,3.49-2.33,6.97-3.49,10.46-.06.17-.14.22-.31.22-.41-.01-.82-.01-1.23,0-.16,0-.24-.04-.31-.2-1.18-2.88-2.38-5.75-3.57-8.63-.03-.07-.06-.13-.11-.24-.04.11-.08.19-.1.27-1,2.85-2,5.71-2.99,8.57-.06.19-.15.25-.34.24-.41-.02-.82-.01-1.23,0-.17,0-.24-.05-.3-.21-1.33-3.5-2.66-6.99-4-10.49-.13-.34-.24-.69-.4-1.02-.45-.94-1.17-1.57-2.23-1.73-.22-.03-.44-.02-.66-.02-.8,0-1.6,0-2.4,0-.18,0-.24.04-.24.23,0,3.01,0,6.02,0,9.04,0,.34.03.67.11,1,.23.98.86,1.52,1.87,1.6.57.05,1.13,0,1.69-.06.15-.02.19.02.19.17-.01.26-.01.51,0,.77,0,.17-.05.24-.21.3-.91.34-1.85.45-2.81.41-.58-.02-1.16-.08-1.72-.23-1.49-.4-2.32-1.37-2.57-2.88-.06-.37-.08-.74-.08-1.12,0-2.97,0-5.94,0-8.9,0-.22-.06-.26-.27-.27-.7-.02-1.22.3-1.64.83-.25.32-.42.69-.57,1.06-1.51,3.76-3.03,7.51-4.54,11.27-.07.17-.15.25-.35.24-.46-.02-.93-.01-1.39,0-.18,0-.27-.06-.34-.22-1.24-2.93-2.49-5.85-3.74-8.77-.41-.97-.83-1.94-1.24-2.91-.43-1.01-1.2-1.54-2.29-1.62-.04,0-.09,0-.13,0,0-.26,0-.53,0-.79Z"/><path class="cls-1" d="m91.53,60.12c-.42-.08-.86-.12-1.27-.23-2.02-.56-3.51-1.77-4.34-3.68-1.06-2.43-1.11-4.92.02-7.33,1.11-2.37,3.08-3.6,5.67-3.84,1.01-.09,2.01.02,2.97.35,2.19.73,3.39,2.29,3.73,4.54.04.27.05.54.08.81.02.14-.04.2-.18.19-.05,0-.1,0-.15,0-2.88,0-5.77,0-8.65,0-.24,0-.29.08-.31.29-.11,1.25-.13,2.5.09,3.74.13.7.34,1.38.7,2,.71,1.2,1.86,1.74,3.24,1.53,1.3-.2,2.25-.91,2.95-1.99.37-.56.63-1.17.83-1.81.04-.14.09-.17.23-.12.4.14.81.27,1.21.41.09.03.16.05.12.18-.52,1.83-1.47,3.35-3.2,4.27-.73.39-1.51.59-2.33.67-.07,0-.15,0-.21.04h-1.19Zm.32-10.65c.78,0,1.56,0,2.33,0,.15,0,.21-.04.2-.2-.01-.55-.1-1.08-.35-1.57-.78-1.55-2.7-1.79-3.84-.48-.53.6-.76,1.32-.86,2.1-.02.18.09.15.19.15.78,0,1.56,0,2.33,0Z"/><path class="cls-1" d="m83.7,52.76c0,1.28,0,2.56,0,3.85,0,.41.04.81.21,1.18.33.72.93.98,1.67,1,.21,0,.27.06.26.27-.02.5,0,.5-.51.5-2.25,0-4.49,0-6.74,0-.22,0-.31-.04-.28-.28.02-.15-.04-.34.03-.45.07-.11.27-.04.41-.06,1.07-.16,1.64-.85,1.65-2.04.01-2.5,0-5,0-7.5,0-.34-.06-.67-.17-.99-.37-1.05-1.32-1.6-2.52-1.45-1.08.13-2,.61-2.77,1.36-.1.1-.14.21-.14.35,0,2.73,0,5.45,0,8.18,0,.31.04.61.13.91.24.75.83,1.18,1.66,1.19.19,0,.25.05.24.24-.01.53,0,.53-.54.53-2.33,0-4.65,0-6.98,0-.22,0-.31-.05-.28-.28.02-.15-.06-.34.03-.45.09-.11.28-.03.42-.05.83-.1,1.49-.42,1.79-1.27.1-.29.13-.59.13-.89,0-2.26,0-4.53,0-6.79,0-.96-.23-1.23-1.19-1.36-.28-.04-.57-.04-.86-.05-.12,0-.16-.04-.16-.16-.02-.57-.02-.57.46-.88,1.01-.66,2.03-1.32,3.04-1.98.09-.06.19-.1.3-.1.55,0,1.1,0,1.65,0,.17,0,.21.06.21.21,0,.26.01.51,0,.77,0,.18.05.18.18.09.7-.45,1.45-.81,2.24-1.05,1.22-.38,2.46-.5,3.71-.16,1.69.46,2.7,1.77,2.7,3.51,0,1.36,0,2.73,0,4.09,0,0,0,0-.01,0Z"/><path class="cls-1" d="m104.17,46.49c.41-.24.75-.45,1.11-.63,1.09-.54,2.23-.87,3.44-.89.81-.02,1.6.11,2.33.47,1.34.67,1.95,1.8,1.96,3.26.01,2.65,0,5.31,0,7.96,0,.19,0,.38.04.57.18,1,.8,1.55,1.81,1.57.24,0,.29.08.28.3-.02.47,0,.47-.47.47-2.26,0-4.52,0-6.78,0-.21,0-.3-.04-.27-.26.02-.15-.04-.34.03-.45.07-.12.27-.05.41-.07,1.03-.15,1.58-.78,1.66-1.9,0-.09,0-.18,0-.26,0-2.43,0-4.85,0-7.28,0-.32-.04-.63-.13-.93-.29-1-.99-1.57-2.03-1.61-1.34-.05-2.43.51-3.36,1.42-.07.07-.08.15-.08.24,0,2.78,0,5.56,0,8.33,0,.19.02.38.06.57.18.89.8,1.41,1.74,1.43.17,0,.23.04.22.22,0,.55,0,.55-.55.55-2.31,0-4.63,0-6.94,0-.3,0-.3,0-.3-.29,0-.15-.04-.33.03-.43.08-.11.27-.03.42-.05.26-.04.52-.08.77-.18.8-.34,1.14-.99,1.15-1.82.01-2.38,0-4.76,0-7.15,0-.1-.01-.2-.03-.31-.05-.39-.25-.64-.63-.76-.42-.13-.85-.14-1.29-.15-.18,0-.2-.07-.22-.23-.05-.39.09-.61.43-.82,1.02-.63,2.02-1.31,3.02-1.98.11-.07.22-.11.35-.1.54,0,1.09,0,1.63,0,.14,0,.19.04.19.19,0,.31,0,.63,0,1Z"/><path class="cls-1" d="m62.06,44.87c1.07.01,2.12.16,3.12.55,1.69.66,2.91,1.82,3.63,3.48.76,1.77.95,3.61.53,5.49-.51,2.27-1.88,3.88-3.98,4.85-2.17,1-4.41,1.05-6.64.21-1.98-.75-3.31-2.18-3.91-4.21-.65-2.19-.51-4.36.52-6.41,1.15-2.29,3.06-3.55,5.59-3.89.25-.03.5-.05.75-.07.13,0,.26,0,.4,0Zm3.61,6.61c-.01-.17-.03-.33-.04-.5-.09-.94-.24-1.88-.62-2.75-.5-1.16-1.31-1.94-2.63-2.04-1.34-.11-2.43.33-3.15,1.51-.39.63-.61,1.33-.74,2.06-.3,1.62-.3,3.25-.12,4.88.09.77.26,1.53.6,2.24.42.86,1.06,1.45,2.02,1.64.25.05.49.06.74.08,1.44.09,2.5-.5,3.16-1.79.46-.88.63-1.84.73-2.81.02-.15-.03-.24-.14-.34-.47-.46-.95-.91-1.21-1.55-.13-.32-.14-.62-.01-.93.24-.56.71-.62,1.08-.14.11.14.17.31.31.45Z"/></svg>