<?xml version="1.0" encoding="UTF-8"?><svg id="Layer_1" xmlns="http://www.w3.org/2000/svg" viewBox="0 0 125 100"><defs><style>.cls-1{fill:#fff;stroke-width:0px;}</style></defs><path class="cls-1" d="m55.44,47.2c-.02-2.87.51-5.88,1.99-8.67,1.88-3.53,4.82-5.65,8.73-6.38,3.02-.56,5.99-.34,8.86.81,2.89,1.16,4.8,3.27,6.01,6.07.15.34.27.7.42,1.04.14.33.06.5-.3.61-1.97.63-3.94,1.28-5.9,1.92-.82.27-.82.28-1.22-.47-.74-1.38-1.78-2.43-3.32-2.9-2.26-.68-4.83.35-6.16,2.45-.81,1.28-1.17,2.7-1.35,4.18-.29,2.32-.02,4.57,1,6.69.83,1.71,2.16,2.81,4.07,3.18,2.68.51,5.48-1.35,6.02-4.02.05-.24.15-.27.35-.21,2.23.68,4.47,1.36,6.7,2.02.24.07.3.17.23.4-1.07,3.29-2.83,6.05-6.03,7.68-1.69.86-3.52,1.25-5.4,1.36-1.85.12-3.68-.06-5.45-.61-3.18-.99-5.59-2.93-7.19-5.86-1.54-2.82-2.07-5.87-2.06-9.29Z"/><path class="cls-1" d="m92.55,41.21c0,7.02,0,14.05,0,21.07,0,.24-.05.33-.3.33-2.39,0-4.78,0-7.16,0-.21,0-.32-.05-.3-.29.01-.09,0-.19,0-.28,0-12.69,0-25.39-.01-38.08,0-.46.13-.68.55-.87,2.3-1.04,4.58-2.11,6.87-3.18.23-.11.36-.18.36.18,0,7.04,0,14.08,0,21.12Z"/><path class="cls-1" d="m20.37,41.21c0,6.97,0,13.95,0,20.92,0,.33-.05.49-.45.48-2.29-.02-4.59-.02-6.88,0-.31,0-.43-.05-.41-.41.04-.64.02-1.28.02-1.91,0-12.18,0-24.35,0-36.53,0-.45.27-.55.56-.68,2.09-.97,4.18-1.94,6.27-2.91.13-.06.25-.12.38-.18q.5-.25.5.33c0,5.95,0,11.9,0,17.84,0,1.01,0,2.02,0,3.04,0,0,0,0,0,0Z"/><path class="cls-1" d="m51.46,47.41c0,4.89,0,9.78,0,14.67,0,.42-.11.54-.54.54-2.25-.02-4.49-.01-6.74-.01-.23,0-.44.06-.44-.34.01-6.63.01-13.27.01-19.9,0-.81,0-1.62,0-2.43,0-.3.07-.54.28-.76,2.25-2.22,4.5-4.45,6.75-6.68.1-.1.22-.18.35-.23.18-.08.31-.03.31.19,0,.22.01.44.01.65,0,4.76,0,9.53,0,14.29h0Z"/><path class="cls-1" d="m36,62.61c-1.23,0-2.47-.01-3.7,0-.36,0-.55-.1-.72-.43-2.45-4.68-4.92-9.36-7.4-14.04-.46-.86-.48-.87.23-1.55,1.56-1.51,3.13-3,4.68-4.51.34-.34.4-.04.51.17,1.02,1.96,2.03,3.92,3.06,5.88,2.42,4.62,4.84,9.23,7.26,13.85.33.63.34.63-.4.63-1.17,0-2.34,0-3.51,0Z"/><path class="cls-1" d="m112.37,62.55c-.15.1-.31.05-.46.05-2.43,0-4.87-.02-7.3.02-.49,0-.72-.17-.93-.57-1.52-2.89-3.05-5.78-4.57-8.66-1-1.9-1.99-3.8-3-5.69-.17-.32-.14-.51.12-.76,1.72-1.58,3.38-3.23,5.03-4.88.22-.22.3-.16.43.09,1.22,2.34,2.45,4.68,3.68,7.02,2.32,4.42,4.65,8.84,6.97,13.26.02.04.02.08.03.13Z"/><path class="cls-1" d="m37.87,32.27c-.89.9-1.71,1.77-2.57,2.6-3.75,3.65-7.5,7.3-11.26,10.95-.85.82-1.72,1.62-2.59,2.43-.08.07-.16.2-.26.17-.16-.05-.09-.21-.09-.32.04-2.66.04-5.32,0-7.98,0-.2.06-.35.2-.49,2.38-2.36,4.75-4.72,7.12-7.09.18-.18.36-.31.64-.31,2.85.01,5.71.01,8.56.01.06,0,.12.01.24.03Z"/><path class="cls-1" d="m93.34,48.53c0-.62,0-1.09,0-1.57,0-2.18.02-4.36,0-6.54,0-.45.14-.78.47-1.11,2.26-2.24,4.5-4.49,6.74-6.74.19-.19.39-.34.68-.34,2.9,0,5.8,0,8.84,0-5.53,5.54-11.07,10.88-16.74,16.3Z"/><path class="cls-1" d="m36.26,77.24c0-1.66,1.24-2.86,2.92-2.86,1.62,0,2.92,1.3,2.91,2.91-.01,1.47-1.43,2.9-2.89,2.88-1.47-.02-3.03-1.2-2.93-2.93Zm2.87-2.32c-1.55.03-2.32.92-2.29,2.68.02,1.1,1.1,2.06,2.31,2.05,1.36-.01,2.45-1.12,2.4-2.46-.05-1.18-1.01-2.36-2.42-2.26Z"/><path class="cls-1" d="m87.69,77.3c0,1.51-1.4,2.93-2.92,2.87-1.66-.07-2.92-1.25-2.91-2.87.01-1.71,1.26-2.91,2.95-2.91,1.63,0,2.88,1.28,2.88,2.92Zm-2.91-2.39c-1.34-.02-2.37.9-2.4,2.37-.03,1.38,1.04,2.33,2.38,2.37,1.35.04,2.35-.99,2.37-2.4.02-1.34-.97-2.33-2.35-2.35Z"/><path class="cls-1" d="m95.36,79.97c-1.05-1.21-2.09-2.41-3.14-3.62-.02-.02-.04-.05-.06-.07-.13-.12-.21-.37-.43-.28-.18.08-.08.31-.07.47.06,1.04.04,2.08.02,3.13,0,.17.05.44-.21.44-.25,0-.31-.22-.31-.44,0-1.68,0-3.35.05-5.07,1.14,1.42,2.5,2.63,3.69,4.05,0-.75,0-1.51,0-2.26,0-.5,0-1,0-1.49,0-.21.1-.32.3-.33.2,0,.26.12.26.31,0,1.71,0,3.41,0,5.12-.03.01-.07.03-.1.04Z"/><path class="cls-1" d="m30.71,74.94c-1.26,0-2.17.61-2.46,1.55-.32,1.05.06,2.16.96,2.76.96.65,2.23.54,3.16-.26.11-.09.21-.35.41-.15.18.18.09.38-.09.52-1.05.83-2.3,1.15-3.69.37-1.09-.61-1.62-1.93-1.29-3.23.31-1.24,1.4-2.08,2.74-2.13.85-.03,1.61.18,2.23.77.13.13.36.3.18.51-.21.24-.38.02-.54-.13-.48-.47-1.05-.66-1.61-.59Z"/><path class="cls-1" d="m66.67,74.38c.69-.03,1.39.25,1.97.8.14.13.35.28.14.5-.22.23-.35,0-.5-.13-.8-.73-2.16-.86-3.1-.3-.91.54-1.29,1.6-1,2.73.38,1.46,2.24,2.13,3.67,1.33.16-.09.3-.22.46-.32.12-.08.21-.33.41-.12.19.21.05.38-.12.51-.84.65-1.76.99-2.83.69-1.77-.49-2.48-1.91-2.14-3.59.26-1.24,1.5-2.11,3.02-2.11Z"/><path class="cls-1" d="m57.33,77.21c0-.78.01-1.56,0-2.34,0-.29.09-.39.37-.39.81,0,1.62,0,2.43,0,.21,0,.38.06.39.3,0,.29-.22.25-.4.25-.61,0-1.22.02-1.83,0-.33-.01-.52.05-.43.43.02.09,0,.19,0,.28q.01,1.06,1.05,1.05c.36,0,.72-.02,1.08,0,.16.01.44-.11.45.24,0,.35-.25.25-.43.25-.56.01-1.12.02-1.69,0-.37-.01-.53.04-.47.48.06.44.01.9-.02,1.35-.02.25.07.33.31.33.66-.01,1.31,0,1.97,0,.18,0,.34-.02.33.25,0,.26-.11.3-.34.3-.8,0-1.59-.01-2.39.02-.33.01-.39-.11-.38-.4.02-.79,0-1.59,0-2.38,0,0,0,0,0,0Z"/><path class="cls-1" d="m73.64,77.48c0,.68,0,1.37,0,2.05,0,.2.09.49-.26.48-.33,0-.27-.29-.27-.49,0-1.35-.03-2.7,0-4.05,0-.37-.11-.47-.44-.44-.18.02-.37,0-.56,0-.17,0-.27-.08-.27-.25,0-.17.09-.27.25-.27.84,0,1.68,0,2.52,0,.18,0,.3.11.3.29,0,.18-.15.21-.3.22-.03,0-.06,0-.09,0q-.87.04-.87.91c0,.51,0,1.03,0,1.54Z"/><path class="cls-1" d="m45.46,77.24c0-.76,0-1.52,0-2.29,0-.24.02-.46.32-.46.32,0,.24.26.24.45,0,1.35,0,2.71,0,4.06,0,.32.09.45.42.43.45-.02.9,0,1.36,0,.24,0,.41.07.42.32,0,.29-.23.23-.41.23-.65,0-1.31,0-1.96.02-.29,0-.38-.1-.38-.38.01-.79,0-1.59,0-2.38Z"/><path class="cls-1" d="m51.94,76.99c0,.68.02,1.37,0,2.05-.01.32.11.41.4.4.48-.02.97,0,1.45,0,.17,0,.31,0,.29.24-.01.19-.04.32-.28.31-.7,0-1.4,0-2.1.01-.21,0-.26-.08-.26-.28,0-1.62,0-3.23,0-4.85,0-.22.06-.38.3-.37.26.01.21.22.21.39,0,.7,0,1.4,0,2.1,0,0,0,0,0,0Z"/><path class="cls-1" d="m77.95,77.24c0-.78,0-1.55,0-2.33,0-.23.01-.42.3-.4.27.01.26.21.26.4,0,1.55-.01,3.11-.02,4.66,0,.19.07.44-.26.43-.32,0-.27-.24-.27-.44,0-.78,0-1.55,0-2.33h0Z"/></svg>