<?xml version="1.0" encoding="UTF-8"?><svg id="Layer_1" xmlns="http://www.w3.org/2000/svg" viewBox="0 0 125 100"><defs><style>.cls-1{fill:#fff;stroke-width:0px;}</style></defs><path class="cls-1" d="m33.19,43.22c0-4.61,0-9.22,0-13.84,0-1.98.86-3.47,2.58-4.47,7.82-4.53,15.64-9.06,23.47-13.58.64-.37,1.27-.76,1.97-1.04,1.25-.51,2.43-.22,3.54.4,2.01,1.12,3.98,2.29,5.97,3.44,6.2,3.58,12.39,7.18,18.6,10.74,1.79,1.03,2.56,2.61,2.56,4.57.03,9.17,0,18.34.02,27.51,0,2.04-.84,3.6-2.6,4.63-2.11,1.24-4.25,2.42-6.35,3.67-5.43,3.23-10.98,6.27-16.4,9.52-.57.34-1.15.65-1.72.99-1.49.89-2.99.87-4.47.03-2.72-1.55-5.42-3.14-8.14-4.71-5.39-3.12-10.77-6.26-16.19-9.33-1.55-.88-2.47-2.08-2.78-3.8-.06-.31-.05-.62-.05-.93,0-4.6,0-9.2,0-13.8Zm56.59.1c0-4.41-.01-8.82,0-13.23,0-1.84-.78-3.16-2.37-4.07-5.67-3.26-11.33-6.54-16.99-9.81-1.91-1.1-3.79-2.24-5.72-3.31-1.37-.76-2.8-.85-4.21-.05-1.14.65-2.27,1.3-3.41,1.96-6.47,3.74-12.93,7.48-19.4,11.23-.56.33-1.07.72-1.51,1.22-.82.95-.95,2.08-.95,3.27,0,8.52,0,17.04,0,25.57,0,.46.03.92.12,1.37.28,1.39,1.12,2.3,2.33,2.99,3.51,2,7,4.04,10.49,6.06,4.04,2.34,8.08,4.7,12.13,7.04,1.45.84,2.92.88,4.39.03,5.72-3.31,11.44-6.61,17.16-9.91,1.9-1.09,3.8-2.17,5.68-3.29,1.45-.87,2.27-2.11,2.25-3.89-.04-4.38-.01-8.77-.01-13.15Z"/><path class="cls-1" d="m33.12,85.89c0-1.16.01-2.32,0-3.49,0-.37.07-.54.49-.53.99.02,1.97-.01,2.96,0,.92.02,1.56.48,1.88,1.34.3.82.13,1.56-.51,2.14-.29.27-.27.37.04.59.71.53.98,1.54.69,2.41-.27.81-1.17,1.52-2,1.55-1.07.03-2.14.02-3.2.04-.28,0-.34-.11-.34-.36,0-1.23,0-2.46,0-3.69,0,0,0,0,0,0Zm.61,1.71h0c0,.5,0,1,0,1.5,0,.22.07.33.3.31.84-.05,1.67,0,2.51,0,.96,0,1.76-.82,1.76-1.76,0-.93-.8-1.74-1.76-1.75-.85,0-1.7.03-2.55-.03-.22-.02-.27.07-.27.28.02.49,0,.97,0,1.46Zm1.55-5.22s0-.01,0-.02c-.42,0-.84,0-1.26,0-.21,0-.28.06-.27.28.02.73.01,1.46.01,2.19,0,.52.04.58.58.58.74,0,1.49,0,2.23-.01.39,0,.74-.12,1.02-.41.47-.48.59-1.04.37-1.65-.22-.6-.73-.9-1.35-.95-.44-.04-.89,0-1.34,0Z"/><path class="cls-1" d="m86.12,87.81c0,.57,0,1.14,0,1.7,0,.19.08.45-.25.45-.31,0-.23-.25-.23-.42,0-1.03,0-2.06,0-3.08,0-.41-.08-.78-.28-1.12-.39-.68-1-.95-1.74-.78-.6.14-1.17.82-1.19,1.48-.02,1.08,0,2.16,0,3.24,0,.14,0,.27,0,.41-.01.14-.03.28-.22.28-.16,0-.26-.08-.29-.23-.03-.15-.03-.3-.03-.44,0-1.04,0-2.08,0-3.12,0-1.05-.82-1.76-1.86-1.63-.71.09-1.29.82-1.3,1.68-.01,1.08,0,2.16,0,3.25,0,.11,0,.22-.01.32-.03.15-.14.19-.28.17-.12-.01-.19-.08-.19-.21,0-1.32-.14-2.66.03-3.97.12-.93.78-1.55,1.69-1.77.82-.2,1.48.19,1.98.82.2.26.28.23.46,0,.61-.76,1.43-1.04,2.18-.77.92.33,1.53,1.18,1.53,2.13,0,.54,0,1.08,0,1.62,0,0,0,0,0,0Z"/><path class="cls-1" d="m65.83,85.94c0-1.19,0-2.38,0-3.57,0-.2-.07-.51.21-.53.31-.02.31.3.31.52,0,.92-.04,1.83-.06,2.75,0,.47,0,.44.46.37.83-.13,1.67-.07,2.51-.06,1.2.01,1.2.02,1.2-1.16,0-.65,0-1.3,0-1.95,0-.18-.04-.41.24-.43.29-.02.31.19.31.41,0,2.42,0,4.84,0,7.26,0,.14.04.3-.14.39-.25.12-.43-.02-.43-.37,0-1.15,0-2.3.02-3.45,0-.21-.02-.3-.26-.26-.87.14-1.75.04-2.63.07-.14,0-.27,0-.41,0-.77.01-.89.12-.89.9,0,.84.04,1.67.06,2.51,0,.11,0,.22,0,.32-.01.2-.11.3-.31.29-.21-.01-.21-.16-.21-.32,0-1.14,0-2.27.02-3.41,0-.09,0-.19.01-.28-.01,0-.02,0-.04,0Z"/><path class="cls-1" d="m45.36,85.9c0-1.18.02-2.35,0-3.53,0-.4.12-.52.51-.51.95.02,1.89-.02,2.84.01,1.16.04,1.95.89,1.95,2.05,0,1.11-.84,1.96-1.98,1.99-.74.02-1.49,0-2.23.01-.54,0-.57.03-.58.58,0,1.01,0,2.03.01,3.04,0,.19.04.4-.25.41-.3,0-.25-.22-.25-.4,0-1.22,0-2.43,0-3.65h0Zm2.11-3.55h0c-.43,0-.87,0-1.3,0-.22,0-.32.1-.32.32,0,.81,0,1.62-.01,2.43,0,.24.1.33.34.33.8-.02,1.59,0,2.39-.03.94-.03,1.61-.7,1.6-1.54-.01-.9-.66-1.5-1.65-1.52-.35,0-.7,0-1.05,0Z"/><path class="cls-1" d="m41.22,86.97c-.14,0-.22-.01-.3-.02-.78-.05-.92.13-.67.89.32.99,1.08,1.6,1.96,1.58.47-.01.85-.22,1.19-.53.13-.12.27-.34.47-.12.18.21-.02.34-.16.47-.98.93-2.25.9-3.2-.08-1.51-1.55-1.03-4.2.91-5.08.72-.33,1.76-.08,2.25.54.55.69.18,1.79-.71,2.11-.58.21-1.19.22-1.74.23Zm.36-.52c.14,0,.4,0,.66-.03.49-.06.9-.27,1.15-.72.12-.21.13-.39-.02-.6-.22-.31-.5-.51-.89-.57-1.06-.15-2.13.64-2.29,1.71-.04.24.07.29.27.26.33-.06.67-.04,1.12-.04Z"/><path class="cls-1" d="m88.91,86.98c-.2,0-.34-.02-.49-.02-.51,0-.6.1-.52.6.17,1.02,1.07,1.87,1.99,1.87.44,0,.81-.17,1.15-.44.08-.07.16-.14.25-.21.1-.08.22-.12.33-.01.11.11.05.22-.02.33-.43.61-1.49.99-2.21.77-1.59-.47-2.44-2.22-1.84-3.98.29-.83.79-1.49,1.67-1.82.73-.27,1.68-.04,2.17.57.55.68.21,1.76-.68,2.09-.59.22-1.21.26-1.79.25Zm.24-.53c.5,0,1.01.03,1.46-.23.33-.19.64-.45.6-.85-.04-.38-.33-.64-.7-.77-.08-.03-.15-.05-.23-.06-1.1-.22-2.18.56-2.36,1.69-.04.23.05.3.26.26.32-.06.64-.05.97-.04Z"/><path class="cls-1" d="m61.59,86.97c-.2,0-.41,0-.61,0-.29,0-.39.15-.37.41.07,1.03,1.02,2.1,2.03,2.06.43-.02.79-.17,1.11-.43.06-.05.12-.11.18-.17.13-.11.26-.22.42-.06.17.17.02.29-.1.41-1.04,1.05-2.46.99-3.43-.17-1.29-1.55-.83-4.13,1.1-4.92.7-.29,1.75-.04,2.22.55.57.72.2,1.79-.74,2.12-.58.21-1.19.22-1.8.22Zm.31-.54c.47.02.95.03,1.39-.18.36-.17.72-.62.66-.9-.09-.4-.37-.64-.76-.77-.04-.01-.08-.02-.12-.03-1.09-.26-2.24.55-2.42,1.68-.04.24.07.28.27.26.32-.03.65-.04.97-.07Z"/><path class="cls-1" d="m72,86.93c-.01-1.33.81-2.5,2.06-2.91.53-.17,1.04-.05,1.52.22,1.11.64,1.59,1.65,1.52,2.88-.07,1.19-.65,2.11-1.77,2.61-1.01.45-2.31-.08-2.91-1.17-.28-.51-.42-1.05-.41-1.63Zm4.62.09c0-.84-.27-1.49-.81-2.03-.65-.64-1.69-.69-2.4-.11-1.15.95-1.21,3-.12,4.02.85.78,1.98.71,2.71-.19.42-.51.64-1.09.62-1.69Z"/><path class="cls-1" d="m52.07,86.12c0,.5.01,1,0,1.5-.03.96.66,1.77,1.54,1.8.87.03,1.6-.69,1.62-1.66.02-1.13,0-2.27,0-3.4,0-.19-.04-.41.26-.4.26,0,.28.2.28.4,0,1.13.01,2.27,0,3.4-.02,1-.96,2.03-1.94,2.15-.82.1-1.82-.58-2.12-1.46-.1-.28-.16-.57-.16-.87,0-1.08,0-2.16-.01-3.24,0-.21.02-.41.27-.41.23,0,.29.19.29.41,0,.59,0,1.19,0,1.78,0,0-.02,0-.02,0Z"/><path class="cls-1" d="m57.38,87.76c0-.62-.03-1.24,0-1.86.05-.85.87-1.75,1.69-1.9.14-.03.27-.04.32.15.05.18,0,.3-.19.37-1.04.38-1.39.88-1.39,1.99,0,1.03.01,2.05.02,3.08,0,.18.05.38-.21.4-.29.02-.27-.21-.27-.4,0-.61,0-1.21,0-1.82.01,0,.02,0,.03,0Z"/><path class="cls-1" d="m37.94,43.11c0-3.88.03-7.77-.01-11.65-.02-1.68.71-2.85,2.13-3.67,4.47-2.57,8.94-5.16,13.41-7.75,2.36-1.37,4.73-2.72,7.08-4.11,1.32-.78,2.63-.77,3.92-.02,5.62,3.24,11.23,6.49,16.85,9.74,1.27.74,2.54,1.49,3.82,2.22,1.33.75,1.94,1.9,1.94,3.4,0,7.95-.01,15.91.01,23.86,0,1.56-.66,2.67-1.96,3.43-1.81,1.06-3.63,2.09-5.44,3.14-3.59,2.08-7.17,4.18-10.75,6.26-1.5.87-3,1.71-4.5,2.58-1.28.74-2.57.75-3.85,0-3.59-2.08-7.18-4.16-10.77-6.24-3.23-1.87-6.45-3.75-9.69-5.59-1.5-.85-2.22-2.08-2.21-3.8.02-3.94,0-7.87,0-11.81h0Zm12.98-4.58h0c0,4.36,0,8.71,0,13.07,0,.33.12.41.43.41,2.15-.01,4.3-.02,6.45,0,.39,0,.5-.11.5-.5-.01-6.18,0-12.36-.02-18.55,0-.34.1-.44.43-.44,3.22.01,6.44.01,9.66,0,.34,0,.41.12.39.43-.1,1.24-.06,2.49,0,3.73.02.53.02.53-.53.53-2.52,0-5.03,0-7.55,0-.32,0-.43.06-.43.42.02,2.12.01,4.25.01,6.37,0,.6-.01.6.58.6,2.58,0,5.17,0,7.75,0,.31,0,.63,0,.93.05,2.42.43,3.99,2.45,3.93,4.97-.03,1.32-.05,2.65,0,3.98.13,3.04-2.38,5.09-4.86,5.05-3.67-.05-7.33-.01-11-.02-1.2,0-2.41,0-3.61,0-.26,0-.37-.08-.36-.35.02-.36,0-.73,0-1.1,0-.54,0-.55.53-.55,4.63,0,9.25,0,13.88,0,.32,0,.65,0,.97-.02,1.28-.09,2.4-1.18,2.43-2.46.04-1.72.03-3.44,0-5.15-.02-1.12-1.04-2.21-2.13-2.4-.53-.09-.54-.09-.56.46-.06,2.11-.07,4.22,0,6.33.02.59.02.59-.54.56-.11,0-.22-.01-.32-.01-5.51,0-11.01,0-16.52-.01-.33,0-.44.1-.43.45.02,2.15.03,4.3,0,6.45,0,.4.09.49.48.49,5.65-.01,11.31,0,16.96,0,.43,0,.86-.02,1.3-.06,3.42-.35,6.16-3.18,6.4-6.59.13-1.81.1-3.62.05-5.43-.07-2.35-.95-4.33-2.84-5.81-.2-.16-.21-.23,0-.41,1.43-1.19,2.44-2.66,2.69-4.53.31-2.28.28-4.59.07-6.88-.32-3.53-3.46-6.44-6.99-6.47-5.93-.05-11.85-.01-17.78-.02-.29,0-.36.1-.36.38,0,4.34,0,8.69,0,13.03Z"/><path class="cls-1" d="m53.6,38.55c0-3.39,0-6.79-.01-10.18,0-.42.13-.52.53-.52,4.6,0,9.2,0,13.79,0,.58,0,1.16-.05,1.74.08,2.31.51,3.79,2.41,3.78,4.81-.01,1.41-.02,2.81-.02,4.22,0,2.88-1.89,4.88-4.77,4.93-1.77.03-3.54-.03-5.31.03-.29.01-.42-.09-.4-.4.02-.42.02-.84,0-1.26,0-.28.11-.36.39-.36,1.79.01,3.57,0,5.36,0,1.63,0,2.75-1.11,2.76-2.75,0-1.54,0-3.08,0-4.63-.01-1.53-1.18-2.69-2.7-2.7-4.23,0-8.47,0-12.7,0-.37,0-.44.11-.44.46.01,6.18,0,12.36.02,18.54,0,.34-.1.46-.44.44-.4-.03-.81-.04-1.22,0-.31.03-.35-.1-.35-.37,0-3.45,0-6.9,0-10.35h0Z"/></svg>