<?xml version="1.0" encoding="UTF-8"?><svg id="Layer_1" xmlns="http://www.w3.org/2000/svg" viewBox="0 0 125 100"><defs><style>.cls-1{fill:#fff;stroke-width:0px;}</style></defs><path class="cls-1" d="m61.94,43.54c.31,0,.62.02.93,0,.34-.02.45.13.47.44.08,1.51.17,3.02.25,4.53,0,.15-.01.3.03.44.04.12.16.3.24.3.15,0,.33-.08.43-.19.1-.11.12-.29.17-.45.48-1.56.96-3.11,1.43-4.67.09-.3.23-.41.54-.4.56.02,1.13.02,1.69,0,.34-.01.46.1.48.45.08,1.56.19,3.12.29,4.68.01.23.03.44.31.49.29.05.39-.15.47-.39.5-1.61,1.02-3.21,1.51-4.82.09-.3.22-.44.56-.42.54.03,1.07,0,1.61,0,.51,0,.54.04.36.54-1.18,3.35-2.37,6.7-3.56,10.04-.23.65-.47,1.31-.69,1.96-.08.24-.21.34-.47.33-.46-.02-.91-.02-1.37,0-.29.01-.41-.1-.44-.38-.17-1.64-.35-3.27-.53-4.9-.02-.21.04-.49-.3-.53-.32-.03-.34.25-.42.45-.47,1.28-.93,2.56-1.39,3.84-.15.4-.3.8-.44,1.21-.07.22-.21.32-.45.31-.46-.01-.91-.03-1.37,0-.37.02-.45-.15-.48-.47-.15-1.61-.31-3.22-.46-4.83-.23-2.38-.45-4.76-.69-7.14-.03-.34.05-.46.4-.44.29.02.59,0,.89,0Z"/><path class="cls-1" d="m41.66,56.41q-1.05,0-1.4-.99c-.56-1.57-1.11-3.15-1.67-4.72-.05-.14-.22-.25-.34-.37-.1.14-.26.27-.28.42-.26,1.69-.51,3.38-.75,5.08-.08.55-.1.57-.65.57-.54,0-1.08-.01-1.61,0-.35.01-.45-.13-.4-.46.23-1.6.45-3.2.68-4.8.34-2.35.68-4.71,1.02-7.06.07-.51.1-.55.63-.55.44,0,.89.02,1.33,0,.34-.02.5.1.61.42.58,1.65,1.18,3.29,1.8,4.93.06.16.23.27.35.41.1-.15.26-.29.29-.46.25-1.61.47-3.23.69-4.84.04-.33.18-.47.52-.45.52.02,1.05.02,1.57,0,.39-.02.49.15.44.51-.2,1.44-.39,2.89-.59,4.33-.34,2.48-.68,4.95-1.02,7.43-.08.61-.08.61-.69.61-.17,0-.35,0-.52,0Z"/><path class="cls-1" d="m80.39,56.8c-.69-.14-1.41-.21-2.07-.43-1.43-.48-2.11-1.66-1.9-3.31.26-2.05.57-4.1.92-6.14.5-2.88,2.58-3.95,5.21-3.65.59.07,1.19.24,1.72.5,1.23.6,1.8,1.64,1.63,2.99-.29,2.26-.6,4.53-1.01,6.77-.37,2.04-1.71,3.04-3.96,3.17-.17,0-.35,0-.52,0,0,.03-.01.07-.02.1Zm2.87-9.93c.02-.86-.4-1.36-1.13-1.49-1.13-.2-1.97.37-2.17,1.54-.22,1.26-.39,2.54-.57,3.81-.12.79-.26,1.58-.32,2.38-.07.8.4,1.32,1.18,1.45,1.17.19,1.94-.38,2.12-1.58.16-1.06.32-2.11.47-3.17.15-1.02.29-2.04.42-2.94Z"/><path class="cls-1" d="m18.34,43.47c.88.08,1.78.07,2.63.25,1.74.36,2.74,1.68,2.79,3.44.05,1.59-.4,2.95-1.72,3.94-.12.09-.2.35-.17.52.23,1.34.48,2.68.73,4.02.02.13.05.26.06.4.02.22-.06.36-.31.37-.66,0-1.32,0-1.97,0-.27,0-.32-.18-.36-.39-.2-1.24-.42-2.48-.6-3.72-.05-.36-.19-.53-.57-.51-.28.02-.56.01-.85,0-.34-.02-.48.16-.52.47-.16,1.2-.34,2.41-.49,3.61-.05.39-.2.57-.62.54-.56-.03-1.13-.01-1.69,0-.28,0-.38-.1-.34-.39.47-3.29.94-6.59,1.4-9.88.1-.69.2-1.37.28-2.06.04-.39.21-.56.62-.54.56.03,1.13,0,1.69,0,0-.02,0-.05,0-.07Zm.44,6.18c.21,0,.43.02.64,0,.61-.06,1.12-.33,1.41-.88.4-.75.46-1.55.05-2.31-.38-.71-1.07-.82-1.8-.81-.08,0-.16,0-.24,0-.32-.02-.45.14-.49.45-.11.87-.24,1.75-.36,2.62-.14,1.05-.23.94.79.93Z"/><path class="cls-1" d="m96.25,56.41c-.28,0-.56-.01-.85,0-.29.01-.43-.1-.48-.4-.19-1.25-.42-2.5-.61-3.76-.05-.36-.22-.48-.56-.46-.23.01-.46,0-.68,0-.56,0-.62.05-.7.59-.16,1.18-.34,2.35-.48,3.53-.05.36-.2.51-.57.5-.58-.02-1.15,0-1.73,0-.28,0-.38-.09-.33-.39.56-3.95,1.12-7.91,1.67-11.87.08-.58.12-.62.71-.61,1.29.02,2.58-.04,3.86.1,1.96.21,3.12,1.61,3.18,3.57.04,1.58-.41,2.92-1.72,3.9-.12.09-.19.35-.16.52.23,1.41.5,2.81.75,4.22.09.49.03.56-.48.56-.27,0-.54,0-.81,0Zm-2.56-6.76c.21,0,.43.02.64,0,.76-.09,1.3-.48,1.56-1.2.59-1.61-.24-2.8-1.95-2.8-.04,0-.08,0-.12,0-.4-.05-.54.15-.58.52-.1.86-.22,1.72-.35,2.58-.18,1.14-.06.89.79.9Z"/><path class="cls-1" d="m105.93,48.04c.1-.11.21-.22.29-.35.86-1.27,1.73-2.55,2.58-3.83.16-.24.33-.34.62-.33.66.02,1.32,0,1.97.01.12,0,.33.04.35.11.03.11-.01.29-.09.39-.99,1.48-1.99,2.95-3.01,4.42-.2.29-.25.55-.16.89.57,2.17,1.13,4.34,1.69,6.52.12.45.05.53-.4.53-.56,0-1.13-.02-1.69,0-.35.02-.49-.12-.57-.45-.34-1.43-.7-2.85-1.06-4.28-.04-.14-.13-.27-.2-.41-.12.1-.24.19-.35.29-.98.96-.94,2.25-1.13,3.46-.05.36-.08.72-.17,1.07-.03.12-.22.29-.34.29-.66.03-1.32.01-1.97.01-.32,0-.33-.19-.29-.43.22-1.51.43-3.02.64-4.53.33-2.36.67-4.71,1-7.07.02-.16.06-.32.07-.48.03-.26.17-.37.43-.37.55,0,1.1,0,1.65,0,.53,0,.57.03.5.54-.14,1.07-.3,2.14-.44,3.22-.03.23-.04.46-.06.69.04.02.09.04.13.06Z"/><path class="cls-1" d="m115.14,53.02c.11,0,.21,0,.32,0,.27,0,.59-.08.79.04.17.11.2.45.29.68.16.42.46.72.89.78.44.06.91.05,1.35-.03.46-.08.72-.45.8-.91.1-.55.01-1.04-.45-1.41-.88-.7-1.76-1.4-2.65-2.09-1.5-1.16-1.88-2.68-1.36-4.52.26-.93.88-1.59,1.78-1.94,1.39-.54,2.81-.57,4.21-.06,1.33.48,2.01,1.54,1.97,2.91-.01.35-.15.48-.49.47-.56-.02-1.13-.01-1.69,0-.28,0-.41-.09-.45-.38-.09-.74-.44-1.08-1.13-1.19-.75-.12-1.46.2-1.72.76-.27.59-.13,1.26.44,1.73.77.64,1.58,1.25,2.37,1.87.12.09.23.19.35.27,1.51,1.06,1.77,2.53,1.4,4.2-.22,1.01-.86,1.73-1.83,2.09-1.54.57-3.1.62-4.64.02-1.28-.49-1.91-1.49-1.88-2.79,0-.35.12-.53.5-.5.28.02.56,0,.85,0Z"/><path class="cls-1" d="m3.2,56.41c-.3,0-.59-.01-.89,0-.33.02-.43-.13-.38-.44.2-1.36.39-2.72.58-4.09.36-2.57.73-5.13,1.09-7.7.09-.63.1-.66.75-.65,1.19.02,2.4-.04,3.58.1,1.97.23,3.2,1.68,3.16,3.66-.01.74-.11,1.5-.34,2.2-.49,1.45-1.68,2.05-3.11,2.23-.66.08-1.34.08-2.01.09-.35,0-.52.15-.56.48-.16,1.16-.33,2.33-.5,3.49-.08.6-.1.62-.69.62-.23,0-.46,0-.68,0Zm3.09-6.67c.29-.03.59-.04.88-.1.72-.14,1.2-.55,1.4-1.27.47-1.68-.37-2.76-2.1-2.72-.33,0-.48.13-.53.46-.12.93-.26,1.85-.39,2.78-.11.83-.1.83.73.85Z"/><path class="cls-1" d="m52.89,43.54c1.21,0,2.42.01,3.63,0,.38,0,.51.12.45.49-.06.41-.11.82-.15,1.23-.03.28-.17.39-.45.39-.66,0-1.32,0-1.97,0-.3,0-.46.09-.5.42-.44,3.23-.9,6.46-1.35,9.69-.09.65-.09.66-.74.66-.51,0-1.02-.01-1.53,0-.35.01-.45-.12-.4-.46.24-1.63.46-3.25.7-4.88.24-1.67.47-3.33.72-5,.05-.34-.09-.43-.39-.43-.63,0-1.26-.02-1.89,0-.38.02-.47-.13-.41-.47.07-.41.12-.82.17-1.23.03-.29.17-.41.47-.41,1.22.01,2.44,0,3.67,0Z"/><path class="cls-1" d="m28.37,56.41c-.3,0-.59,0-.89,0-.32.01-.44-.11-.39-.43.3-2.09.6-4.18.89-6.27.26-1.83.52-3.65.78-5.48.09-.67.1-.69.76-.69.51,0,1.02,0,1.53,0,.29,0,.38.11.34.39-.44,3.06-.87,6.11-1.3,9.17-.13.91-.25,1.83-.38,2.74-.08.55-.1.57-.65.57-.23,0-.46,0-.69,0Z"/></svg>