<?xml version="1.0" encoding="UTF-8"?><svg id="Layer_1" xmlns="http://www.w3.org/2000/svg" viewBox="0 0 125 100"><defs><style>.cls-1{fill:#fff;stroke-width:0px;}</style></defs><path class="cls-1" d="m82.1,89.31c-1.03-.33-2.17-.24-3.14-.84-1.18-.72-1.2-.83-.3-1.82.6-.67,1.06-.98,2.01-.42,1.02.6,2.25.6,3.29-.13,1.09-.76,1.08-1.96,1.04-3.14-.02-.58-.28-.44-.57-.2-.87.72-1.89.9-2.98.86-2.01-.07-3.46-1.23-3.8-3.21-.34-2.01-.36-4.05,0-6.05.53-2.97,4-4.35,6.51-2.65.43.29.69.83,1.15-.16.36-.79,1.48-.34,2.25-.3.57.03.53.6.53,1.04,0,3.93.03,7.86-.02,11.8-.03,2.73-1.76,4.6-4.49,5.01-.31.05-.6.15-.91.22h-.56Zm-1.59-11.91c.04.71-.02,1.44.23,2.13.33.89,1.03,1.37,2.02,1.37,1.01,0,1.7-.45,1.97-1.4.4-1.41.4-2.84,0-4.25-.27-.97-.91-1.38-1.97-1.38-1.1,0-1.67.37-2.01,1.32-.26.72-.24,1.47-.26,2.22Z"/><path class="cls-1" d="m91.42,10.83c2.98.65,5.11,3.39,5.04,6.49-.07,3.04-2.35,5.54-5.31,6.16-3.03.63-6.85-1.43-7.47-4.94-.68-3.91,1.44-7.04,5.22-7.75,0,0,1-.25,2.52.04Zm4.24,6.4c.02-3.25-2.42-5.79-5.59-5.82-3.21-.03-5.76,2.45-5.78,5.63-.02,3.23,2.49,5.81,5.71,5.85,3.06.05,5.65-2.54,5.66-5.66Z"/><path class="cls-1" d="m63.07,33.58c.6-.28.73-.69.94-1.02,4.36-6.74,8.73-13.48,13.07-20.24.46-.72.97-1.04,1.83-.98,1,.06,2,0,3,.02.33,0,.77-.16.96.16.21.35-.19.62-.37.89-2.95,4.46-5.87,8.93-8.88,13.34-.68,1-.73,1.78-.23,2.89,4.82,10.61,9.57,21.24,14.34,31.87.5,1.12.48,1.15-.7,1.16-3.69,0-7.38-.02-11.06.01-.77,0-1.19-.26-1.5-.96-2.92-6.57-5.86-13.12-8.8-19.67-.11-.26-.25-.51-.35-.77-.25-.63-.51-.68-.96-.13-.85,1.04-1.34,2.11-1.32,3.56.09,5.53.04,11.06.04,16.59,0,1.32-.06,1.37-1.38,1.38-3.09,0-6.19,0-9.28,0-1.34,0-1.39-.04-1.39-1.36,0-7.47,0-14.94,0-22.41,0-1.44-.01-1.47-1.46-1.49-2.37-.02-4.75-.01-7.13-.01-1.57,0-1.58,0-1.58,1.55,0,7.31,0,14.63,0,21.94q0,1.65-1.7,1.66c-2.97,0-5.94,0-8.91,0-1.28,0-1.36-.09-1.36-1.31,0-15.88,0-31.75,0-47.63,0-1.19.09-1.28,1.28-1.29,3.19,0,6.38.03,9.56-.02.94-.01,1.14.35,1.14,1.21-.03,5.72-.02,11.44-.02,17.16,0,.37.02.75.02,1.12,0,.59.29.82.87.82,2.78-.01,5.56-.03,8.34,0,.87,0,.93-.48.93-1.14,0-5.88,0-11.75,0-17.63,0-1.51,0-1.52,1.51-1.53,3.03,0,6.06,0,9.09,0,1.39,0,1.44.05,1.44,1.41,0,6.53,0,13.06,0,19.59,0,.37,0,.73,0,1.24Z"/><path class="cls-1" d="m63.41,77.64c0-1.78.02-3.56-.01-5.34-.02-.79.25-1.18,1.08-1.11.4.03.81,0,1.22,0,.22,0,.53,0,.59.21.34,1.29.92.43,1.41.17,2.89-1.55,6.26.24,6.43,3.54.14,2.74.04,5.49.05,8.24,0,.58-.28.82-.86.86-2.16.16-2.22.12-2.22-2.03,0-1.94.01-3.87,0-5.81-.01-1.61-.83-2.52-2.24-2.54-1.46-.02-2.33.88-2.36,2.54-.03,2.22-.04,4.43,0,6.65.02.89-.31,1.21-1.2,1.2-1.88-.02-1.88.02-1.88-1.91,0-1.56,0-3.12,0-4.68Z"/><path class="cls-1" d="m48.22,79.05c.38-.22.39-.63.5-.96.65-1.92,1.31-3.84,1.88-5.79.25-.84.66-1.14,1.53-1.12,2.1.04,2.11,0,1.39,1.98-1.21,3.31-2.46,6.61-3.62,9.95-.32.92-.85,1.14-1.74,1.14-.85,0-1.29-.28-1.58-1.1-1.3-3.65-2.66-7.27-3.99-10.91-.35-.95-.29-1.04.69-1.04,2.58.02,2.05-.32,2.87,2.07.55,1.63,1.06,3.27,1.6,4.9.1.31.1.69.46.89Z"/><path class="cls-1" d="m31.63,73.75c0,2,0,4,0,5.99,0,1.46.23,1.73,1.67,1.93.55.07.8.35.75.86-.05.58.31,1.33-.51,1.63-1.4.51-3.56-.23-4.36-1.45-.5-.76-.63-1.63-.63-2.51-.01-4.25,0-8.49-.02-12.74,0-.87.35-1.14,1.18-1.14,1.91,0,1.91-.03,1.91,1.9,0,1.84,0,3.68,0,5.53Z"/><path class="cls-1" d="m36.95,77.59c0-1.71,0-3.43,0-5.14,0-1.17.08-1.24,1.2-1.25q1.87-.02,1.87,1.89c0,3.3,0,6.61,0,9.91,0,1.13-.09,1.2-1.24,1.22-.22,0-.44-.02-.65,0-.9.09-1.21-.32-1.19-1.2.04-1.81.01-3.62.01-5.42Z"/><path class="cls-1" d="m56.45,77.68c0-1.81.02-3.62,0-5.44-.01-.75.27-1.06,1.04-1.07,2.03-.02,2.03-.05,2.03,1.94,0,3.25,0,6.5,0,9.75,0,1.28-.06,1.34-1.31,1.34-.22,0-.44-.02-.66,0-.8.07-1.13-.28-1.11-1.09.03-1.81.01-3.62.01-5.44Z"/><path class="cls-1" d="m38.53,66.3c1.44,0,1.8.46,1.49,1.88-.09.41-.35.57-.72.59-.53.02-1.06.03-1.58,0-.98-.06-.72-.83-.75-1.41-.04-.59.08-1.07.82-1.06.25,0,.5,0,.75,0Z"/><path class="cls-1" d="m57.84,66.29c1.6,0,1.66.04,1.67,1.17.01,1.21-.09,1.31-1.33,1.32-.22,0-.43,0-.65,0-.4-.01-.9.05-1.01-.44-.13-.59-.26-1.26.12-1.8.31-.45.87-.16,1.2-.25Z"/><path class="cls-1" d="m87.19,17.07c0-.87.02-1.75,0-2.62-.02-.7.26-1.05,1-1.01,1.15.05,2.31-.12,3.45.18.68.18,1.2.54,1.36,1.26.16.74-.07,1.39-.67,1.82-.45.32-.61.46-.1.93.82.74.71,1.85.68,2.82-.02.6-.7.32-1.09.36-.51.05-.96-.07-1.01-.7-.03-.44-.02-.87-.03-1.31-.01-.38-.08-.75-.28-1.08-.19-.31-.48-.5-.87-.42-.35.08-.38.4-.39.67-.03.62-.05,1.25-.03,1.87.02.74-.34.98-1.04.98-.67,0-.99-.26-.97-.94.02-.94,0-1.87,0-2.81Zm1.98-1.74c.18.49-.28,1.3.68,1.37.61.05,1.19-.63,1.21-1.32.02-.73-.49-1.33-1.16-1.31-.92.02-.59.77-.73,1.26Z"/></svg>