<?xml version="1.0" encoding="UTF-8"?><svg id="Layer_1" xmlns="http://www.w3.org/2000/svg" viewBox="0 0 125 100"><defs><style>.cls-1{fill:#fff;stroke-width:0px;}</style></defs><path class="cls-1" d="m51.25,50.28c0-2.55,0-5.11,0-7.66,0-.18.02-.16-.16-.16-.62,0-1.24,0-1.87,0-.11,0-.14-.03-.14-.14,0-.51,0-1.01,0-1.52,0-.11.03-.14.14-.14,2.03,0,4.07,0,6.1,0,.12,0,.15.03.15.15,0,2.53,0,5.07,0,7.6,0,.02,0,.03,0,.05,0,.03-.01.06.02.08.03.02.05-.02.07-.03.17-.12.33-.24.5-.35.65-.44,1.33-.81,2.08-1.05,1-.32,2.01-.41,3.02-.02,1.04.4,1.72,1.15,2.02,2.23.11.39.15.8.15,1.2,0,2.48,0,4.96,0,7.43q0,.16.16.16c.63,0,1.27,0,1.9,0,.1,0,.13.02.13.13,0,.52,0,1.04,0,1.55,0,.1-.03.12-.12.12-2.52,0-5.03,0-7.55,0-.09,0-.12-.02-.12-.12,0-.52,0-1.04,0-1.55,0-.09.02-.12.12-.12.37,0,.75,0,1.12,0,.09,0,.13-.02.13-.12,0-2.23,0-4.47,0-6.7,0-.44-.05-.88-.23-1.3-.19-.45-.55-.68-1.03-.71-.55-.04-1.05.12-1.53.37-.27.14-.52.31-.76.49-.06.04-.08.09-.08.16,0,2.57,0,5.14,0,7.71,0,.08.03.11.11.11.37,0,.75,0,1.12,0,.1,0,.14.02.14.13,0,.51,0,1.03,0,1.54,0,.1-.04.12-.13.12-.81,0-1.62,0-2.43,0-1.68,0-3.36,0-5.04,0q-.16,0-.16-.16c0-.5,0-1,0-1.51,0-.1.03-.13.13-.13.63,0,1.27,0,1.9,0,.11,0,.14-.03.14-.14,0-2.56,0-5.12,0-7.69Z"/><path class="cls-1" d="m19.46,59.89c-1.21,0-2.42,0-3.64,0-.11,0-.15-.02-.15-.14,0-.55,0-1.09,0-1.64,0-.1.03-.14.13-.14.37,0,.75,0,1.12,0,.09,0,.11-.01.07-.1-.31-.78-.61-1.57-.92-2.36-.12-.31-.25-.63-.36-.95-.03-.09-.07-.12-.17-.12-1.6,0-3.2,0-4.8,0-.1,0-.15.03-.18.13-.41,1.09-.82,2.17-1.23,3.25-.06.15-.05.15.1.15.45,0,.89,0,1.34,0,.09,0,.13.02.13.12,0,.55,0,1.11,0,1.66,0,.1-.02.13-.12.13-1.61,0-3.21,0-4.82,0-.1,0-.12-.03-.12-.12,0-.56,0-1.12,0-1.67,0-.1.03-.12.12-.12.4,0,.8,0,1.2,0,.11,0,.16-.03.2-.13.53-1.41,1.06-2.81,1.59-4.21.63-1.66,1.26-3.31,1.89-4.97.66-1.73,1.31-3.46,1.97-5.19.17-.45.34-.89.51-1.34.03-.08.06-.11.14-.11.58,0,1.16,0,1.73,0,.08,0,.11.03.14.1.53,1.33,1.05,2.65,1.58,3.98.52,1.3,1.04,2.61,1.56,3.91.5,1.26,1,2.53,1.51,3.79.54,1.35,1.08,2.7,1.61,4.05.04.1.09.13.19.13.45,0,.9,0,1.35,0,.09,0,.11.03.11.11,0,.56,0,1.12,0,1.68,0,.1-.04.12-.12.12-1.22,0-2.45,0-3.67,0Zm-6.34-7.34c.55,0,1.1,0,1.65,0,.14,0,.15,0,.09-.14-.12-.3-.23-.59-.35-.89-.45-1.15-.91-2.3-1.36-3.45-.02-.05-.02-.12-.07-.12-.05,0-.05.08-.07.13-.54,1.45-1.09,2.9-1.63,4.34-.05.12-.05.13.09.13.55,0,1.1,0,1.65,0Z"/><path class="cls-1" d="m105.92,47.46c0-.17,0-.32,0-.46,0-.08.02-.11.11-.11.37,0,.74,0,1.11,0,.09,0,.11.04.11.12,0,1.11,0,2.22,0,3.33,0,.09-.03.13-.12.12-.3,0-.6,0-.9,0-.07,0-.1-.02-.13-.09-.2-.63-.53-1.18-1.1-1.54-.63-.39-1.29-.46-1.96-.11-.35.18-.57.47-.58.88,0,.35.16.64.4.89.3.32.66.57,1.03.8.71.45,1.45.84,2.14,1.33.67.48,1.27,1.03,1.67,1.76.37.68.49,1.42.42,2.18-.06.65-.25,1.26-.63,1.8-.47.67-1.11,1.11-1.86,1.4-.64.25-1.31.36-2,.39-.71.03-1.43,0-2.13-.13-.44-.08-.86-.21-1.24-.44-.08-.05-.12-.04-.15.06-.04.12-.1.24-.14.36-.03.09-.07.12-.17.11-.3,0-.61,0-.91,0-.1,0-.13-.03-.13-.13,0-.49,0-.97,0-1.46,0-.83,0-1.66,0-2.49,0-.12.03-.16.15-.16.3,0,.6,0,.9,0,.08,0,.11.02.13.1.16.66.43,1.27.91,1.77.55.58,1.23.88,2.04.77.54-.08.94-.38,1.15-.9.17-.4.04-.76-.21-1.08-.32-.41-.73-.71-1.15-1-.63-.45-1.29-.86-1.9-1.35-.57-.45-1.09-.95-1.47-1.57-.37-.58-.56-1.22-.55-1.91.02-1.42.69-2.48,1.91-3.19.72-.42,1.51-.61,2.34-.65.57-.03,1.14,0,1.7.12.42.08.82.22,1.22.45Z"/><path class="cls-1" d="m34.36,51.84c-.15-.27-.29-.54-.46-.79-.19-.28-.38-.55-.66-.74-.6-.41-1.31-.33-1.84.19-.27.26-.5.56-.76.83-.05.05-.04.1-.04.16,0,1.02,0,2.05,0,3.07,0,1.14,0,2.28,0,3.42,0,.11.03.14.14.14.63,0,1.27,0,1.9,0,.1,0,.13.02.13.12,0,.51,0,1.03,0,1.54,0,.11-.04.13-.14.13-2.76,0-5.52,0-8.28,0-.1,0-.14-.02-.14-.13,0-.51,0-1.03,0-1.54,0-.1.03-.13.13-.13.64,0,1.28,0,1.91,0,.09,0,.12-.02.12-.12,0-2.96,0-5.93,0-8.89,0-.1-.03-.13-.13-.13-.63,0-1.27,0-1.9,0-.1,0-.14-.03-.14-.13,0-.51,0-1.02,0-1.53,0-.1.02-.13.13-.13,2.05,0,4.09,0,6.14,0,.09,0,.12.03.12.12,0,.62,0,1.24,0,1.85,0,.04-.03.1.02.12.06.02.07-.05.1-.09.43-.6.89-1.18,1.44-1.67.32-.28.68-.5,1.09-.62.48-.13.93-.06,1.35.2.42.26.76.61,1.07.99.04.05.04.09.03.14-.15,1.03-.48,2.01-.96,2.93-.1.2-.21.4-.32.6-.01.03-.02.06-.07.07Z"/><path class="cls-1" d="m47.63,48.99c0,.68,0,1.35,0,2.03,0,.11-.04.14-.14.14-.31,0-.61,0-.92,0-.08,0-.12-.02-.15-.11-.2-.65-.43-1.28-.86-1.81-.48-.59-1.11-.85-1.86-.79-.82.06-1.38.52-1.77,1.21-.3.53-.45,1.1-.55,1.69-.13.78-.14,1.56-.1,2.35.06,1,.23,1.98.7,2.88.27.52.63.95,1.14,1.26.45.26.93.35,1.45.32.98-.06,1.82-.48,2.6-1.04.08-.06.17-.12.26-.17.17-.1.26-.09.4.05.18.17.29.39.39.61.05.1.08.21.12.31.05.11.01.21-.06.3-.27.35-.6.63-.96.87-1.06.72-2.24,1.09-3.52,1.15-.97.05-1.92-.06-2.84-.38-1.77-.63-3.01-1.81-3.7-3.55-.37-.93-.51-1.89-.49-2.89.02-1.06.22-2.07.68-3.02.74-1.53,1.9-2.6,3.5-3.19.61-.22,1.24-.33,1.88-.37,1.11-.06,2.19.13,3.23.53.09.03.12.02.12-.08,0-.12,0-.24,0-.36,0-.07.02-.1.1-.1.42,0,.84,0,1.26,0,.1,0,.09.06.09.12,0,.68,0,1.36,0,2.04Z"/><path class="cls-1" d="m111.13,52.77c0-1.22,0-2.44,0-3.66,0-.11-.03-.15-.15-.15-.57,0-1.15,0-1.72,0-.04,0-.09.02-.11-.03-.01-.04.04-.05.06-.08,1.21-1.09,2.43-2.18,3.65-3.27.79-.71,1.58-1.42,2.37-2.13.02-.02.04-.07.08-.05.04.02.02.06.02.1,0,1.17,0,2.33,0,3.5,0,.16,0,.16.15.16,1,0,2,0,3,0,.15,0,.16,0,.16.16,0,.5,0,1,0,1.49,0,.11-.03.14-.14.14-1,0-2,0-3,0q-.17,0-.17.17c0,2.17,0,4.34,0,6.51,0,.53.03,1.06.21,1.57.14.41.36.75.8.91.34.12.68.08,1.02-.03.31-.11.6-.27.9-.41.15-.07.3-.13.47-.13.29,0,.47.25.38.53-.17.53-.52.93-.95,1.26-.48.38-1.03.61-1.62.75-.76.18-1.52.2-2.29.1-.81-.1-1.54-.39-2.13-.98-.46-.47-.73-1.04-.88-1.67-.1-.44-.13-.89-.13-1.34,0-1.14,0-2.29,0-3.43Z"/><path class="cls-1" d="m78.46,47.17c1.21,0,2.42,0,3.64,0q.16,0,.17.16c0,.49,0,.97,0,1.46q0,.17-.17.17c-.49,0-.97,0-1.46,0-.09,0-.12.01-.07.11.63,1.36,1.26,2.73,1.89,4.09.15.32.3.64.45.96.02.03.01.09.07.09.04,0,.04-.06.05-.09.33-.81.65-1.63.98-2.45.34-.86.69-1.72,1.04-2.57.05-.13.05-.14-.09-.14-.49,0-.98,0-1.47,0-.11,0-.14-.03-.14-.14,0-.51,0-1.01,0-1.52,0-.1.03-.14.13-.14,1.68,0,3.37,0,5.05,0,.1,0,.13.03.12.13,0,.51,0,1.03,0,1.54,0,.1-.03.13-.13.13-.51,0-1.03,0-1.54,0-.09,0-.13.03-.16.11-.45,1.1-.9,2.21-1.35,3.31-.48,1.18-.97,2.37-1.45,3.55-.5,1.23-1,2.47-1.5,3.7-.07.17-.14.34-.2.51-.03.07-.06.1-.14.1-.19,0-.38,0-.57,0-.07,0-.11-.02-.14-.09-.32-.71-.65-1.41-.98-2.12-.65-1.41-1.31-2.83-1.96-4.24-.57-1.23-1.13-2.46-1.7-3.69-.16-.34-.32-.68-.47-1.03-.03-.08-.08-.1-.17-.1-.45,0-.91,0-1.36,0-.11,0-.16-.02-.16-.15,0-.51,0-1.01,0-1.52,0-.11.03-.13.14-.13,1.22,0,2.45,0,3.67,0Z"/><path class="cls-1" d="m95.55,52.65c0,1.77,0,3.54,0,5.31,0,.12.03.14.15.14.6,0,1.2,0,1.81,0,.1,0,.12.03.12.12,0,.52,0,1.04,0,1.55,0,.09-.02.12-.12.12-2.72,0-5.43,0-8.15,0-.09,0-.12-.02-.12-.11,0-.52,0-1.04,0-1.57,0-.1.04-.12.13-.12.61,0,1.21,0,1.82,0,.1,0,.14-.02.14-.14,0-2.95,0-5.89,0-8.84q0-.16-.16-.16c-.59,0-1.19,0-1.78,0-.12,0-.15-.04-.15-.15,0-.51,0-1.01,0-1.52,0-.1.03-.13.13-.13,2.02,0,4.04,0,6.05,0,.11,0,.13.04.13.14,0,1.78,0,3.56,0,5.34Z"/><path class="cls-1" d="m72.49,52.64c0,1.77,0,3.54,0,5.31,0,.12.03.16.15.15.6,0,1.2,0,1.81,0,.1,0,.13.02.13.13,0,.51,0,1.03,0,1.54,0,.11-.04.13-.14.13-2.03,0-4.06,0-6.09,0-.67,0-1.35,0-2.02,0-.09,0-.13-.02-.13-.12,0-.52,0-1.04,0-1.55,0-.09.03-.12.12-.12.61,0,1.21,0,1.82,0,.1,0,.14-.02.14-.13,0-2.96,0-5.91,0-8.87,0-.11-.03-.14-.14-.14-.6,0-1.2,0-1.79,0-.11,0-.14-.03-.14-.14,0-.51,0-1.01,0-1.52,0-.11.04-.14.14-.14,2.01,0,4.01,0,6.02,0,.12,0,.14.04.14.14,0,1.78,0,3.55,0,5.33Z"/><path class="cls-1" d="m70.13,44.85c-1.41,0-2.56-1.14-2.55-2.55,0-1.45,1.19-2.56,2.6-2.54,1.34.02,2.53,1.13,2.5,2.6-.03,1.39-1.17,2.5-2.55,2.49Z"/><path class="cls-1" d="m95.72,42.32c0,1.4-1.18,2.57-2.64,2.53-1.35-.04-2.47-1.2-2.45-2.58.02-1.43,1.21-2.59,2.68-2.51,1.35.07,2.43,1.2,2.41,2.56Z"/></svg>