<?xml version="1.0" encoding="UTF-8"?><svg id="Layer_1" xmlns="http://www.w3.org/2000/svg" viewBox="0 0 125 100"><defs><style>.cls-1{fill:#fff;stroke-width:0px;}</style></defs><path class="cls-1" d="m62.09,24.75c7.87.02,14.17,6.39,14.15,14.32-.02,7.75-6.43,14.13-14.18,14.12-7.9-.01-14.27-6.36-14.28-14.22,0-7.9,6.38-14.24,14.31-14.22Zm-3.07,23.18c.24-.03.48-.06.72-.09,1.57-.2,3.06-.8,4.65-.97,1.34-.14,2.68-.24,3.99-.55.72-.17.82-.34.67-1.06-.2-.95-.59-1.83-.99-2.71-.66-1.46-1.31-2.92-1.67-4.5-.24-1.08-.44-2.16-.53-3.26-.05-.64-.29-1.09-1-1.24-.55-.11-1.05-.4-1.52-.71-1.27-.84-2.55-1.68-3.79-2.56-.45-.32-.68-.18-.9.22-.29.53-.46,1.11-.63,1.69-.4,1.33-.89,2.63-1.64,3.8-.43.68-.57,1.35-.4,2.11.07.29.12.59.18.88.39,1.72,1.01,3.38,1.25,5.14.14,1.03.29,2.06.57,3.07.15.55.43.85,1.04.74Z"/><path class="cls-1" d="m66.93,73.93c-1.88,1.61-4.1,1.73-5.56.32-1.44-1.38-1.62-3.89-.41-5.45,1.36-1.74,3.54-1.87,6.01-.31,0-1.03,0-2.03,0-3.02,0-.27-.21-.25-.39-.25-.52,0-1.04-.02-1.56,0-.36.01-.38-.19-.37-.46,0-.27-.04-.52.38-.51.8.02,1.61.03,2.41,0,.49-.02.49.23.49.59,0,2.79,0,5.57,0,8.36,0,.99-.06.86.82.85.39,0,.57.08.58.52,0,.47-.24.47-.57.45-.2-.01-.4,0-.6,0q-1.09,0-1.21-1.09Zm-2.98.35c1.71.04,2.92-1.21,2.96-3.02.04-1.73-1.08-2.9-2.79-2.96-1.63-.05-2.95,1.23-2.99,2.89-.04,1.76,1.14,3.05,2.82,3.09Z"/><path class="cls-1" d="m6.96,68.66c.57-.37,1.03-.73,1.57-.95.39-.16.79-.28,1.22-.32,1.82-.18,2.74.65,2.73,2.46,0,1.22.02,2.45-.01,3.67-.01.46.14.6.58.56.25-.02.55-.11.76.06.19.17.08.46.07.69-.01.28-.26.2-.42.2-.96,0-1.93,0-2.89.01-.34,0-.46-.11-.45-.45.01-.31.02-.52.44-.53.97-.01.97-.04.97-1.04,0-1,0-2.01,0-3.01-.01-1.27-.72-1.86-1.99-1.67-.98.14-1.73.7-2.45,1.32-.18.15-.16.35-.16.55,0,1.02,0,2.05,0,3.07,0,.92-.07.81.81.78.51-.02.68.15.62.65-.03.27-.14.33-.38.33-1.02,0-2.05-.01-3.07,0-.38,0-.35-.22-.35-.47,0-.24-.05-.49.33-.49.35,0,.84.17,1.02-.11.18-.28.08-.73.08-1.11,0-2.27,0-4.53,0-6.8,0-.96.06-.78-.79-.81-.28-.01-.67.15-.67-.41,0-.4.08-.59.53-.56.44.04.88.04,1.32,0,.47-.04.57.16.56.59-.03,1.1-.01,2.21,0,3.31,0,.14.02.27.03.5Z"/><path class="cls-1" d="m50.6,71.42c-.98,0-1.97.03-2.95-.01-.5-.02-.56.18-.49.6.21,1.28,1.16,2.12,2.59,2.26,1.3.13,2.5-.22,3.67-.75.18-.08.45-.49.65.04.14.37.23.63-.27.84-1.46.63-2.95,1.02-4.56.73-2-.36-3.2-1.89-3.12-3.94.09-2.03,1.48-3.57,3.43-3.79,1.97-.22,3.39.43,4.13,1.88.27.53.36,1.1.45,1.67.06.35-.08.46-.42.46-1.04-.01-2.08,0-3.13,0Zm-.46-.94c.76,0,1.52,0,2.29,0,.77,0,.84-.13.44-.81-.61-1.03-1.58-1.35-2.71-1.33-1.17.02-2.16.4-2.78,1.48-.03.05-.05.11-.07.16-.17.34-.11.51.31.5.84-.02,1.68,0,2.53,0Z"/><path class="cls-1" d="m42.23,67.96c0-.39.05-.68.55-.62.34.04.44.14.43.47-.02.6-.02,1.2,0,1.81.01.32-.07.48-.43.46-.3-.02-.59,0-.51-.43.09-.52-.19-.75-.63-.92-1.06-.42-2.13-.57-3.23-.21-.52.17-.98.44-.97,1.07.01.63.48.88,1.01,1.03.78.22,1.59.2,2.39.27.4.03.8.04,1.2.11,1.55.3,2.11,1.89,1.12,3.12-.66.82-1.58,1.05-2.57,1.11-1,.06-1.96-.15-2.86-.58-.27-.12-.46-.18-.42.23.05.45-.29.32-.53.35-.3.03-.44-.07-.43-.4.02-.72.02-1.44,0-2.17,0-.37.22-.36.47-.35.24,0,.54-.05.47.33-.12.7.33.95.84,1.18,1.09.5,2.2.57,3.35.26.13-.04.26-.1.39-.15.53-.24.84-.62.75-1.23-.09-.62-.57-.79-1.09-.85-.62-.07-1.24-.09-1.86-.13-.6-.04-1.21-.07-1.78-.27-.69-.24-1.28-.6-1.38-1.42-.11-.82.13-1.52.79-2.02,1.07-.8,2.29-.74,3.52-.55.48.07.9.31,1.4.48Z"/><path class="cls-1" d="m31.84,74c-.32.23-.61.47-.92.67-1.02.66-2.11.75-3.22.3-.92-.37-1.34-1.11-1.35-2.08,0-1.26-.02-2.53,0-3.79,0-.44-.09-.65-.56-.58-.16.02-.32-.01-.48,0-.38.05-.42-.17-.41-.47,0-.28-.01-.52.39-.5.5.02,1,.02,1.5,0,.37-.02.48.1.48.48-.02,1.36,0,2.73,0,4.09,0,.74.03,1.49.79,1.89.82.44,1.67.37,2.47-.1.22-.13.43-.29.64-.45.53-.42.8-.93.75-1.65-.07-.92-.03-1.84,0-2.77.01-.39-.09-.56-.5-.51-.2.02-.4,0-.6,0-.39.02-.33-.25-.33-.49,0-.25-.03-.49.35-.48.52.02,1.04.02,1.56,0,.38-.01.46.16.46.51-.01,1.79.02,3.57-.02,5.36-.01.55.16.68.68.66.24-.01.68-.26.74.3.05.46-.05.73-.59.65-.22-.03-.44,0-.66,0q-1.02,0-1.15-1.02Z"/><path class="cls-1" d="m105.73,67.36c1.56.01,2.9.51,3.69,1.94.76,1.38.79,2.84-.1,4.17-1.11,1.65-2.8,1.95-4.64,1.66-2.62-.42-4.03-2.92-3.05-5.38.59-1.48,2.18-2.41,4.1-2.39Zm-.25,6.92c1.49,0,2.56-.55,3.12-1.48.93-1.56.17-3.66-1.54-4.27-1.65-.59-3.59-.03-4.34,1.27-.55.96-.6,1.95-.04,2.92.66,1.15,1.74,1.53,2.8,1.56Z"/><path class="cls-1" d="m74.8,75.22c-2.39.02-4.03-1.29-4.31-3.41-.23-1.78.67-3.37,2.33-4.06,1.18-.49,2.39-.53,3.59-.15,1.8.56,2.89,2.35,2.64,4.23-.26,1.95-1.71,3.26-3.77,3.4-.16.01-.32,0-.48,0Zm-.29-.94c1.76,0,2.96-.72,3.42-1.89.44-1.15.11-2.51-.8-3.3-1.35-1.18-3.86-1-5.02.36-.89,1.04-.92,2.54-.08,3.61.7.89,1.66,1.21,2.48,1.23Z"/><path class="cls-1" d="m19.39,67.36c3.82-.08,5,3.44,3.93,5.69-.85,1.78-3.12,2.62-5.42,1.97-2.61-.73-3.7-3.78-2.14-5.99.88-1.23,2.17-1.65,3.62-1.68Zm.02,6.92c1.45,0,2.64-.71,3.11-1.86.45-1.1.16-2.44-.71-3.27-1.22-1.17-3.63-1.12-4.91.1-1.19,1.14-1.16,3.08.07,4.18.7.62,1.53.85,2.44.86Z"/><path class="cls-1" d="m87.9,68.2c-.14-.71.06-.92.6-.84.23.04.31.14.31.35,0,.76,0,1.52,0,2.29,0,.37-.23.36-.48.35-.24,0-.54.03-.46-.35.18-.94-.45-1.23-1.15-1.45-.94-.29-1.89-.34-2.83.03-1.23.49-1.93,1.64-1.82,2.96.1,1.24,1.03,2.3,2.24,2.61,1.47.38,2.72-.08,3.9-.91.13-.09.32-.42.46-.12.12.25.51.59.12.9-1.84,1.44-5.01,1.83-6.7-.09-1.04-1.19-1.26-2.58-.73-4.05.53-1.45,1.62-2.24,3.13-2.47,1.17-.17,2.27.04,3.4.78Z"/><path class="cls-1" d="m115.1,69.53c.6-.51,1.06-.93,1.55-1.31.77-.59,1.61-.97,2.62-.83.51.07.86.34,1.03.81.08.21.34.53,0,.67-.26.11-.64.28-.88-.18-.23-.45-.68-.45-1.11-.37-.75.12-1.3.6-1.85,1.07-1.36,1.17-1.37,1.18-1.35,2.98,0,.55-.26,1.27.13,1.61.35.31,1.04.07,1.58.09.4.01.8.02,1.2,0,.39-.03.4.2.41.49,0,.31-.04.48-.41.48-1.87-.02-3.73-.01-5.6,0-.36,0-.43-.15-.43-.47,0-.34.08-.53.47-.5.42.03.84,0,1.26.01.3.01.43-.08.43-.4-.01-1.59-.01-3.17,0-4.76,0-.29-.1-.4-.39-.39-.46.01-.92-.01-1.38,0-.35.01-.39-.17-.38-.45,0-.28,0-.52.39-.51.78.02,1.57.01,2.35,0,.29,0,.38.12.37.4-.02.47,0,.95,0,1.56Z"/><path class="cls-1" d="m92.61,71.06c0-.6-.04-1.21.01-1.8.05-.57-.12-.83-.72-.73-.37.06-.52-.06-.53-.48-.01-.5.24-.53.59-.48.54.08.72-.13.66-.66-.04-.36.01-.72-.01-1.08-.03-.39.15-.47.5-.47.34,0,.47.1.45.45-.02.44.01.88-.01,1.32-.02.35.12.45.45.44,1.12-.02,2.25,0,3.37,0,.36,0,.65-.04.64.5,0,.51-.28.47-.62.47-1.12,0-2.25,0-3.37,0-.36,0-.49.11-.48.48.02,1.14,0,2.29.01,3.43.01,1.27.51,1.78,1.79,1.84,1.05.05,2-.35,2.96-.69.19-.07.49-.4.62.03.09.3.2.64-.29.83-1.34.5-2.67,1-4.14.69-1.26-.27-1.86-.99-1.87-2.27,0-.6,0-1.2,0-1.8Z"/><path class="cls-1" d="m58.56,39.72c.17.41.3.82.5,1.21.37.73.97,1.12,1.8,1.06.96-.07,1.93-.05,2.86-.37,1.07-.37,1.26-.79.76-1.8-.3-.59-.49-1.22-.74-1.87.13.89-.57.94-1.09,1.15-.77.3-.77.29-.54,1.04.06.19.1.39.13.59.02.13,0,.27,0,.55-.31-.46-.41-.86-.52-1.25-.12-.39-.27-.52-.68-.33-.54.25-1.09.49-1.59.91-.18-.38-.05-.67.17-.91.18-.21.41-.38.64-.54.44-.29,1.14-.38.79-1.3.34.8.75.52,1.19.27.31-.17.65-.33.99-.43.48-.14.34-.35.08-.56-.4-.33-.89-.33-1.38-.27-.93.11-1.69.59-2.41,1.15-.27.21-.53.43-.79.64-.35-.65-.33-.93.15-1.36.79-.72,1.67-1.32,2.69-1.68,1.15-.4,1.75-.12,2.14,1.02.47,1.38,1.14,2.7,1.21,4.2.06,1.27-.3,1.75-1.55,2-.93.18-1.87.2-2.82.2-.6,0-1.03-.26-1.28-.82-.37-.8-.61-1.64-.69-2.52Z"/></svg>