<?xml version="1.0" encoding="UTF-8"?><svg id="Layer_1" xmlns="http://www.w3.org/2000/svg" viewBox="0 0 125 100"><defs><style>.cls-1{fill:#fff;stroke-width:0px;}</style></defs><path class="cls-1" d="m101.35,49.97c0-1.72,0-3.43,0-5.15,0-.46.04-.91-.64-.84-.12.01-.27-.03-.28-.19-.02-.22.15-.23.31-.23,1.1,0,2.2,0,3.3,0,.49,0,.42.36.43.65,0,1.43-.01,2.87,0,4.3,0,.22-.13.53.11.64.28.13.35-.23.49-.38,1.41-1.46,3.96-1.32,4.97.27.29.45.37.95.37,1.46,0,1.54.02,3.07,0,4.61,0,.5.08.8.66.72.14-.02.35-.03.33.2-.01.19-.19.21-.35.21-1.46,0-2.92,0-4.38,0-.16,0-.33-.04-.33-.23,0-.22.21-.2.35-.18.61.09.64-.27.63-.73-.02-1.69,0-3.38,0-5.07,0-.59.07-1.22-.69-1.44-.59-.17-1.38.23-1.73.87-.28.5-.4,1.05-.41,1.62,0,1.36,0,2.71-.01,4.07,0,.45.08.76.63.68.13-.02.34-.05.35.17,0,.27-.22.23-.39.24-1.41,0-2.82,0-4.22,0-.17,0-.4.03-.4-.23,0-.22.22-.19.35-.18.6.09.58-.3.58-.71,0-1.72,0-3.43,0-5.15Z"/><path class="cls-1" d="m14.11,52.38s.1-.07.1-.11c0-2.35.09-4.71-.05-7.06-.03-.55-.22-1.06-.89-1.18-.15-.03-.31-.11-.26-.31.03-.15.17-.16.31-.16.69,0,1.38,0,2.07,0,.13,0,.27,0,.31.16.03.14-.04.26-.18.29-.92.16-.88.9-.89,1.55-.05,3.2-.06,6.4-.11,9.61,0,.36.27.86-.29,1.06-.63.22-1.78,0-2.06-.4-1.51-2.12-3.01-4.25-4.51-6.37-.63-.9-1.26-1.79-1.89-2.69-.09-.13-.18-.28-.36-.22-.19.07-.11.26-.11.4,0,2.46-.01,4.92.01,7.38,0,.75.14,1.47,1.13,1.52.12,0,.19.08.18.2,0,.12-.09.19-.2.19-.87,0-1.74,0-2.61,0-.06,0-.16-.12-.18-.21-.04-.13.09-.17.19-.18.99-.09,1.07-.84,1.08-1.57.03-2.74.03-5.48,0-8.22,0-.83-.65-1.35-1.12-1.93-.1-.13-.37-.15-.31-.38.08-.27.34-.16.53-.16,1.02,0,2.05.04,3.07-.02.55-.03.85.21,1.13.61,1.81,2.59,3.63,5.18,5.46,7.77.12.17.16.45.46.47Z"/><path class="cls-1" d="m85.72,51.76c.4-.66.56-1.38.8-2.07.52-1.47,1.04-2.94,1.55-4.41.21-.6.39-1.19-.58-1.25-.18,0-.29-.11-.26-.3.02-.17.16-.17.29-.17.64,0,1.28,0,1.92,0,.14,0,.26.04.28.2.02.14-.05.26-.18.3-.86.3-1.01,1.11-1.26,1.81-1.12,3.21-2.2,6.43-3.29,9.65-.15.45-.32.75-.9.73-.55-.02-.65-.35-.79-.76-.91-2.58-1.83-5.15-2.75-7.73-.32-.89-.61-1.79-.95-2.67-.17-.45-.16-1.06-.86-1.12-.11-.01-.17-.12-.15-.23.03-.15.15-.19.29-.19,1.49,0,2.97,0,4.46,0,.14,0,.26.04.28.2.02.15-.06.26-.2.27-.32,0-.41.14-.31.44.83,2.39,1.66,4.78,2.49,7.16.02.04.06.08.12.14Z"/><path class="cls-1" d="m40.14,56.44c-2.04.08-3.52-.66-4.36-2.37-1.32-2.7-.07-5.44,2.9-6.22,1.72-.45,3.42-.2,4.82,1.05,2.11,1.89,1.63,5.58-.87,6.94-.84.46-1.7.68-2.5.59Zm-1.36-4.47s0,0-.01,0c0,.92-.05,1.84.01,2.76.07.93.57,1.4,1.31,1.39.74,0,1.27-.48,1.32-1.41.09-1.81.13-3.63-.03-5.44-.07-.84-.59-1.28-1.35-1.26-.74.01-1.19.42-1.24,1.28-.06.89-.01,1.79-.01,2.68Z"/><path class="cls-1" d="m98.61,55.11c-.23,1.17-2.51,1.85-3.55.79-.33-.33-.5-.31-.86-.02-1.31,1.06-3.5.69-4.23-.68-.64-1.2-.14-2.63,1.11-3.22.88-.41,1.82-.51,2.77-.54.43-.02.67-.16.64-.64-.04-.64-.04-1.28-.07-1.91-.03-.51-.4-.7-.82-.78-.5-.1-.97.07-1.34.42-.15.15-.03.32.07.48.51.9.49,1.48-.03,1.83-.49.32-1.25.24-1.61-.19-.49-.56-.46-1.33.08-1.95,1.18-1.38,5.07-1.27,6.18.18.35.45.5.93.5,1.49,0,1.43,0,2.87,0,4.3,0,.27-.09.6.21.77.36.21.46-.21.69-.32.09-.05.18-.1.28-.01Zm-4.15-1.56s.01,0,.02,0c0-.43,0-.87,0-1.3,0-.24-.04-.45-.36-.48-.62-.06-1.26.35-1.37.96-.13.76-.14,1.53,0,2.29.08.43.27.85.85.8.53-.05.84-.37.87-.89.03-.46,0-.92,0-1.38Z"/><path class="cls-1" d="m62.99,55.02c-.53,1.39-2.45,1.88-3.54.93-.41-.36-.59-.32-.98,0-1.28,1.01-3.46.6-4.17-.74-.62-1.17-.14-2.59,1.06-3.18.87-.43,1.81-.54,2.76-.56.51-.01.74-.2.71-.74-.04-.56-.04-1.12-.04-1.69,0-.52-.32-.79-.78-.91-.5-.12-.96.04-1.36.36-.2.16-.08.36.03.55.52.95.48,1.53-.12,1.86-.6.33-1.32.14-1.67-.43-.41-.66-.19-1.52.52-2,.6-.4,1.25-.67,2-.69,1.1-.03,2.19-.06,3.2.54.77.46,1.17,1.11,1.17,2.01,0,1.33,0,2.66,0,3.99q0,1.38,1.22.71Zm-4.19-1.47h.02c0-.43,0-.87,0-1.3,0-.2,0-.41-.27-.48-.51-.12-1.33.34-1.44.89-.17.78-.16,1.58-.02,2.37.08.44.28.86.85.8.53-.05.85-.35.87-.89.02-.46,0-.92,0-1.38Z"/><path class="cls-1" d="m50.83,49.74c0,1.77.01,3.54,0,5.3,0,.5.02.88.68.79.12-.02.28,0,.29.17,0,.2-.16.24-.32.24-1.46,0-2.92,0-4.38,0-.16,0-.35-.02-.36-.21-.01-.21.19-.23.34-.21.63.11.62-.27.62-.73-.01-3.43-.01-6.87,0-10.3,0-.48,0-.89-.65-.82-.13.01-.27-.05-.27-.21,0-.21.19-.21.34-.21,1.1,0,2.2,0,3.3,0,.55,0,.41.44.41.73.01,1.82,0,3.64,0,5.46Z"/><path class="cls-1" d="m121.4,53.47c0,1.27-1.14,2.57-2.51,2.87-2.67.59-5.11-1.04-5.66-3.26-.72-2.9,1.54-5.58,4.52-5.34,1.97.16,3.41,1.47,3.78,3.33.12.64-.1.75-.66.73-1.23-.03-2.46,0-3.69-.01-.49,0-.7.16-.66.67.04.48,0,.97.02,1.46.05,1.84,1.45,2.59,3.06,1.66.58-.34,1.07-.78,1.38-1.4.12-.24.28-.47.42-.7Zm-3.02-3.51h-.01c0-.33.01-.67,0-1-.03-.54-.34-.89-.85-.92-.55-.03-.92.32-.96.88-.04.51.03,1.03-.04,1.53-.1.77.16,1.01.96,1,.76,0,1.03-.24.91-.96-.03-.17,0-.36,0-.54Z"/><path class="cls-1" d="m33.48,53.71c-1.14,2.54-3.03,3.16-5.26,2.56-2.43-.66-3.73-2.83-3.28-5.15.29-1.5,1.83-3.02,3.43-3.25,1.24-.18,2.5-.33,3.67.36.64.37.94.9.9,1.64-.03.58-.28,1.01-.81,1.18-.58.18-1.14.07-1.49-.48-.31-.49-.3-1.01.02-1.51.15-.24.58-.41.34-.76-.2-.28-.59-.27-.93-.26-.74.03-1.35.47-1.45,1.13-.26,1.68-.36,3.36-.08,5.05.26,1.62,1.72,2.21,3.1,1.29.53-.36.98-.81,1.29-1.38.1-.18.17-.44.55-.4Z"/><path class="cls-1" d="m65.51,53.59c.19.4.37.8.57,1.19.64,1.2,2.14,1.67,3.36,1.06.52-.26.85-.67.8-1.28-.05-.61-.49-.89-1.01-1.01-.52-.12-1.06-.15-1.6-.19-1.54-.11-2.36-.89-2.49-2.38-.13-1.53.8-2.89,2.15-3.22.75-.18,1.48-.07,2.2.09.32.07.61.22.95,0,.28-.19.35.05.36.28.02.41.03.82.03,1.23,0,.17.07.41-.16.46-.24.05-.23-.21-.31-.36-.64-1.26-1.91-1.75-3.14-1.23-.53.22-.87.59-.81,1.16.05.53.41.83.96.95.53.11,1.07.09,1.6.14,1.73.17,2.66,1.17,2.59,2.79-.07,1.81-1.43,3.3-2.88,3.17-.76-.06-1.54.04-2.24-.36-.23-.13-.49-.14-.7.1-.09.11-.18.3-.35.18-.07-.05-.07-.23-.07-.35,0-.8,0-1.6,0-2.4.06-.01.13-.02.19-.03Z"/><path class="cls-1" d="m17.46,48.35c.81-.35,1.43-.22,2.02-.22.76,0,1.72-.36,2.21.16.44.47.12,1.42.13,2.15.02,1.59.02,3.17,0,4.76,0,.44.07.69.58.62.15-.02.41-.07.38.22-.02.19-.21.19-.37.19-1.43,0-2.86,0-4.3,0-.17,0-.4,0-.39-.25.01-.21.23-.18.36-.17.51.07.59-.22.59-.64,0-2-.05-3.99.02-5.98.03-.82-.56-.68-1.22-.85Z"/><path class="cls-1" d="m20.37,43.5c.96,0,1.65.64,1.67,1.6.02.99-.69,1.71-1.68,1.7-.95-.01-1.62-.7-1.62-1.66,0-.98.65-1.63,1.63-1.63Z"/><path class="cls-1" d="m120.63,43.5c-1.24,1.23-2.32,2.26-3.6,3.11.28-1.02.68-1.96,1.16-2.88.1-.18.26-.23.45-.23.58,0,1.17,0,2,0Z"/></svg>