<svg width="25" height="24" viewBox="0 0 25 24" fill="none" xmlns="http://www.w3.org/2000/svg">
<path d="M23.625 0H1.375C1.01033 0 0.660591 0.139071 0.402728 0.386619C0.144866 0.634167 0 0.969914 0 1.32V22.68C0 22.8533 0.0355655 23.025 0.104666 23.1851C0.173766 23.3453 0.275048 23.4908 0.402728 23.6134C0.530409 23.736 0.681988 23.8332 0.84881 23.8995C1.01563 23.9659 1.19443 24 1.375 24H13.35V14.7H10.1V11.1H13.35V8.4C13.2827 7.76611 13.3606 7.12575 13.5784 6.52385C13.7962 5.92194 14.1485 5.37305 14.6106 4.91569C15.0727 4.45833 15.6335 4.10357 16.2535 3.87629C16.8736 3.649 17.538 3.5547 18.2 3.6C19.1729 3.59425 20.1454 3.64233 21.1125 3.744V6.984H19.125C17.55 6.984 17.25 7.704 17.25 8.748V11.064H21L20.5125 14.664H17.25V24H23.625C23.8056 24 23.9844 23.9659 24.1512 23.8995C24.318 23.8332 24.4696 23.736 24.5973 23.6134C24.725 23.4908 24.8262 23.3453 24.8953 23.1851C24.9644 23.025 25 22.8533 25 22.68V1.32C25 1.14666 24.9644 0.975008 24.8953 0.814858C24.8262 0.654708 24.725 0.509193 24.5973 0.386619C24.4696 0.264046 24.318 0.166815 24.1512 0.100479C23.9844 0.0341429 23.8056 0 23.625 0Z" fill="black"/>
</svg>
