<svg width="28" height="28" viewBox="0 0 28 28" fill="none" xmlns="http://www.w3.org/2000/svg">
<path d="M14 7C12.6155 7 11.2622 7.41054 10.111 8.17971C8.95986 8.94888 8.06266 10.0421 7.53284 11.3212C7.00303 12.6003 6.86441 14.0078 7.1345 15.3656C7.4046 16.7235 8.07129 17.9708 9.05025 18.9497C10.0292 19.9287 11.2765 20.5954 12.6344 20.8655C13.9922 21.1356 15.3997 20.997 16.6788 20.4672C17.9579 19.9373 19.0511 19.0401 19.8203 17.889C20.5895 16.7378 21 15.3845 21 14C21 12.1435 20.2625 10.363 18.9497 9.05025C17.637 7.7375 15.8565 7 14 7ZM14 18.2C13.1693 18.2 12.3573 17.9537 11.6666 17.4922C10.9759 17.0307 10.4376 16.3747 10.1197 15.6073C9.80182 14.8398 9.71864 13.9953 9.8807 13.1806C10.0428 12.3659 10.4428 11.6175 11.0302 11.0302C11.6175 10.4428 12.3659 10.0428 13.1806 9.8807C13.9953 9.71864 14.8398 9.80182 15.6073 10.1197C16.3747 10.4376 17.0307 10.9759 17.4922 11.6666C17.9537 12.3573 18.2 13.1693 18.2 14C18.2 15.1139 17.7575 16.1822 16.9698 16.9698C16.1822 17.7575 15.1139 18.2 14 18.2ZM21 5.6C20.7231 5.6 20.4524 5.68211 20.2222 5.83594C19.992 5.98978 19.8125 6.20843 19.7066 6.46424C19.6006 6.72006 19.5729 7.00155 19.6269 7.27313C19.6809 7.5447 19.8143 7.79416 20.01 7.98995C20.2058 8.18574 20.4553 8.31908 20.7269 8.3731C20.9984 8.42712 21.2799 8.39939 21.5358 8.29343C21.7916 8.18747 22.0102 8.00803 22.1641 7.7778C22.3179 7.54757 22.4 7.27689 22.4 7C22.4 6.6287 22.2525 6.2726 21.99 6.01005C21.7274 5.7475 21.3713 5.6 21 5.6ZM27.916 8.736C27.8928 7.53959 27.6655 6.35592 27.244 5.236C26.8531 4.21689 26.2522 3.29139 25.4804 2.51958C24.7086 1.74777 23.7831 1.1469 22.764 0.756C21.6441 0.334459 20.4604 0.107195 19.264 0.0839999C17.906 -7.82311e-08 17.458 0 14 0C10.542 0 10.094 -7.82311e-08 8.736 0.0839999C7.53959 0.107195 6.35592 0.334459 5.236 0.756C4.21689 1.1469 3.29139 1.74777 2.51958 2.51958C1.74777 3.29139 1.1469 4.21689 0.756 5.236C0.334459 6.35592 0.107195 7.53959 0.0839999 8.736C-7.82311e-08 10.108 0 10.556 0 14C0 17.444 -7.82311e-08 17.892 0.0839999 19.264C0.107195 20.4604 0.334459 21.6441 0.756 22.764C1.1469 23.7831 1.74777 24.7086 2.51958 25.4804C3.29139 26.2522 4.21689 26.8531 5.236 27.244C6.35592 27.6655 7.53959 27.8928 8.736 27.916C10.136 27.916 10.542 28 14 28C17.458 28 17.906 28 19.264 27.916C20.4604 27.8928 21.6441 27.6655 22.764 27.244C23.7831 26.8531 24.7086 26.2522 25.4804 25.4804C26.2522 24.7086 26.8531 23.7831 27.244 22.764C27.6655 21.6441 27.8928 20.4604 27.916 19.264C27.916 17.864 28 17.444 28 14C28 10.556 28 10.108 27.916 8.736ZM25.116 19.138C25.0915 20.0265 24.9261 20.9054 24.626 21.742C24.3779 22.4033 23.9858 23.0011 23.478 23.492C22.99 24 22.391 24.3881 21.728 24.626C20.8894 24.9383 20.0046 25.1087 19.11 25.13C17.794 25.13 17.388 25.2 13.986 25.2C10.584 25.2 10.192 25.2 8.876 25.2C7.98283 25.1769 7.09905 25.0115 6.258 24.71C5.59672 24.4619 4.99894 24.0698 4.508 23.562C4.00002 23.074 3.61189 22.475 3.374 21.812C3.06293 20.9779 2.89261 20.0979 2.87 19.208C2.87 17.808 2.87 17.458 2.87 14.07C2.87 10.682 2.87 10.276 2.87 8.932C2.89413 8.03769 3.06438 7.15335 3.374 6.314C3.61558 5.65689 4.00335 5.06327 4.508 4.578C4.99601 4.07002 5.59497 3.68189 6.258 3.444C7.09659 3.13165 7.98139 2.96132 8.876 2.94C10.192 2.8 10.598 2.8 14 2.8C17.402 2.8 17.808 2.8 19.124 2.8C20.023 2.82286 20.9122 2.99312 21.756 3.304C22.4131 3.54558 23.0067 3.93335 23.492 4.438C24 4.92601 24.3881 5.52497 24.626 6.188C24.9687 7.03999 25.1629 7.94442 25.2 8.862C25.2 10.262 25.27 10.612 25.27 14C25.27 17.388 25.2 17.794 25.2 19.138H25.116Z" fill="black"/>
</svg>
